<?xml version="1.0" encoding="UTF-8"?>
<!-- This file is generated by npm run build:icons -->
<svg xmlns="http://www.w3.org/2000/svg" xmlns:xlink="http://www.w3.org/1999/xlink" width="0" height="0">
<defs>
<symbol viewBox="0 0 128 128" id="css3">
  <path fill="#1572B6" d="M18.814 114.123L8.76 1.352h110.48l-10.064 112.754-45.243 12.543-45.119-12.526z" ></path>
  <path fill="#33A9DC" d="M64.001 117.062l36.559-10.136 8.601-96.354h-45.16v106.49z" ></path>
  <path fill="#fff" d="M64.001 51.429h18.302l1.264-14.163H64.001V23.435h34.682l-.332 3.711-3.4 38.114h-30.95V51.429z" ></path>
  <path fill="#EBEBEB"
    d="M64.083 87.349l-.061.018-15.403-4.159-.985-11.031H33.752l1.937 21.717 28.331 7.863.063-.018v-14.39z" ></path>
  <path fill="#fff" d="M81.127 64.675l-1.666 18.522-15.426 4.164v14.39l28.354-7.858.208-2.337 2.406-26.881H81.127z" ></path>
  <path fill="#EBEBEB"
    d="M64.048 23.435v13.831H30.64l-.277-3.108-.63-7.012-.331-3.711h34.646zm-.047 27.996v13.831H48.792l-.277-3.108-.631-7.012-.33-3.711h16.447z" ></path>
</symbol>
<symbol role="img" fill="currentColor" viewBox="0 0 24 24" id="discord">
  <title>Discord</title>
  <path 
    d="M20.317 4.3698a19.7913 19.7913 0 00-4.8851-1.5152.0741.0741 0 00-.0785.0371c-.211.3753-.4447.8648-.6083 1.2495-1.8447-.2762-3.68-.2762-5.4868 0-.1636-.3933-.4058-.8742-.6177-1.2495a.077.077 0 00-.0785-.037 19.7363 19.7363 0 00-4.8852 1.515.0699.0699 0 00-.0321.0277C.5334 9.0458-.319 13.5799.0992 18.0578a.0824.0824 0 00.0312.0561c2.0528 1.5076 4.0413 2.4228 5.9929 3.0294a.0777.0777 0 00.0842-.0276c.4616-.6304.8731-1.2952 1.226-1.9942a.076.076 0 00-.0416-.1057c-.6528-.2476-1.2743-.5495-1.8722-.8923a.077.077 0 01-.0076-.1277c.1258-.0943.2517-.1923.3718-.2914a.0743.0743 0 01.0776-.0105c3.9278 1.7933 8.18 1.7933 12.0614 0a.0739.0739 0 01.0785.0095c.1202.099.246.1981.3728.2924a.077.077 0 01-.0066.1276 12.2986 12.2986 0 01-1.873.8914.0766.0766 0 00-.0407.1067c.3604.698.7719 1.3628 1.225 1.9932a.076.076 0 00.0842.0286c1.961-.6067 3.9495-1.5219 6.0023-3.0294a.077.077 0 00.0313-.0552c.5004-5.177-.8382-9.6739-3.5485-13.6604a.061.061 0 00-.0312-.0286zM8.02 15.3312c-1.1825 0-2.1569-1.0857-2.1569-2.419 0-1.3332.9555-2.4189 2.157-2.4189 1.2108 0 2.1757 1.0952 2.1568 2.419 0 1.3332-.9555 2.4189-2.1569 2.4189zm7.9748 0c-1.1825 0-2.1569-1.0857-2.1569-2.419 0-1.3332.9554-2.4189 2.1569-2.4189 1.2108 0 2.1757 1.0952 2.1568 2.419 0 1.3332-.946 2.4189-2.1568 2.4189Z" ></path>
</symbol>
<symbol viewBox="0 0 128 128" id="docker">
  <path fill-rule="evenodd" clip-rule="evenodd" fill="#3A4D54"
    d="M73.8 50.8h11.3v11.5h5.7c2.6 0 5.3-.5 7.8-1.3 1.2-.4 2.6-1 3.8-1.7-1.6-2.1-2.4-4.7-2.6-7.3-.3-3.5.4-8.1 2.8-10.8l1.2-1.4 1.4 1.1c3.6 2.9 6.5 6.8 7.1 11.4 4.3-1.3 9.3-1 13.1 1.2l1.5.9-.8 1.6c-3.2 6.2-9.9 8.2-16.4 7.8-9.8 24.3-31 35.8-56.8 35.8-13.3 0-25.5-5-32.5-16.8l-.1-.2-1-2.1c-2.4-5.2-3.1-10.9-2.6-16.6l.2-1.7h9.6V50.8h11.3V39.6h22.5V28.3h13.5v22.5z" ></path>
  <path fill="#00AADA"
    d="M110.4 55.1c.8-5.9-3.6-10.5-6.4-12.7-3.1 3.6-3.6 13.2 1.3 17.2-2.8 2.4-8.5 4.7-14.5 4.7H18.6c-.6 6.2.5 11.9 3 16.8l.8 1.5c.5.9 1.1 1.7 1.7 2.6 3 .2 5.7.3 8.2.2 4.9-.1 8.9-.7 12-1.7.5-.2.9.1 1.1.5.2.5-.1.9-.5 1.1-.4.1-.8.3-1.3.4-2.4.7-5 1.1-8.3 1.3h-.6c-1.3.1-2.7.1-4.2.1-1.6 0-3.1 0-4.9-.1 6 6.8 15.4 10.8 27.2 10.8 25 0 46.2-11.1 55.5-35.9 6.7.7 13.1-1 16-6.7-4.5-2.7-10.5-1.8-13.9-.1z" ></path>
  <path fill="#28B8EB"
    d="M110.4 55.1c.8-5.9-3.6-10.5-6.4-12.7-3.1 3.6-3.6 13.2 1.3 17.2-2.8 2.4-8.5 4.7-14.5 4.7h-68c-.3 9.5 3.2 16.7 9.5 21 4.9-.1 8.9-.7 12-1.7.5-.2.9.1 1.1.5.2.5-.1.9-.5 1.1-.4.1-.8.3-1.3.4-2.4.7-5.2 1.2-8.5 1.4l-.1-.1c8.5 4.4 20.8 4.3 35-1.1 15.8-6.1 30.6-17.7 40.9-30.9-.2.1-.4.1-.5.2z" ></path>
  <path fill="#028BB8"
    d="M18.7 71.8c.4 3.3 1.4 6.4 2.9 9.3l.8 1.5c.5.9 1.1 1.7 1.7 2.6 3 .2 5.7.3 8.2.2 4.9-.1 8.9-.7 12-1.7.5-.2.9.1 1.1.5.2.5-.1.9-.5 1.1-.4.1-.8.3-1.3.4-2.4.7-5.2 1.2-8.5 1.4h-.4c-1.3.1-2.7.1-4.1.1-1.6 0-3.2 0-4.9-.1 6 6.8 15.5 10.8 27.3 10.8 21.4 0 40-8.1 50.8-26H18.7v-.1z" ></path>
  <path fill="#019BC6"
    d="M23.5 71.8c1.3 5.8 4.3 10.4 8.8 13.5 4.9-.1 8.9-.7 12-1.7.5-.2.9.1 1.1.5.2.5-.1.9-.5 1.1-.4.1-.8.3-1.3.4-2.4.7-5.2 1.2-8.6 1.4 8.5 4.4 20.8 4.3 34.9-1.1 8.5-3.3 16.8-8.2 24.2-14.1H23.5z" ></path>
  <path fill-rule="evenodd" clip-rule="evenodd" fill="#00ACD3"
    d="M28.4 52.7h9.8v9.8h-9.8v-9.8zm.8.8h.8v8.1h-.8v-8.1zm1.4 0h.8v8.1h-.8v-8.1zm1.5 0h.8v8.1h-.8v-8.1zm1.5 0h.8v8.1h-.8v-8.1zm1.5 0h.8v8.1h-.8v-8.1zm1.5 0h.8v8.1h-.8v-8.1zm3-12h9.8v9.8h-9.8v-9.8zm.9.8h.8v8.1h-.8v-8.1zm1.4 0h.8v8.1h-.8v-8.1zm1.5 0h.8v8.1h-.8v-8.1zm1.5 0h.8v8.1h-.8v-8.1zm1.4 0h.8v8.1h-.8v-8.1zm1.5 0h.8v8.1h-.8v-8.1z" ></path>
  <path fill-rule="evenodd" clip-rule="evenodd" fill="#23C2EE"
    d="M39.6 52.7h9.8v9.8h-9.8v-9.8zm.9.8h.8v8.1h-.8v-8.1zm1.4 0h.8v8.1h-.8v-8.1zm1.5 0h.8v8.1h-.8v-8.1zm1.5 0h.8v8.1h-.8v-8.1zm1.4 0h.8v8.1h-.8v-8.1zm1.5 0h.8v8.1h-.8v-8.1z" ></path>
  <path fill-rule="evenodd" clip-rule="evenodd" fill="#00ACD3"
    d="M50.9 52.7h9.8v9.8h-9.8v-9.8zm.8.8h.8v8.1h-.8v-8.1zm1.5 0h.8v8.1h-.8v-8.1zm1.5 0h.8v8.1h-.8v-8.1zm1.4 0h.8v8.1h-.8v-8.1zm1.5 0h.8v8.1h-.8v-8.1zm1.5 0h.8v8.1h-.8v-8.1z" ></path>
  <path fill-rule="evenodd" clip-rule="evenodd" fill="#23C2EE"
    d="M50.9 41.5h9.8v9.8h-9.8v-9.8zm.8.8h.8v8.1h-.8v-8.1zm1.5 0h.8v8.1h-.8v-8.1zm1.5 0h.8v8.1h-.8v-8.1zm1.4 0h.8v8.1h-.8v-8.1zm1.5 0h.8v8.1h-.8v-8.1zm1.5 0h.8v8.1h-.8v-8.1zm3.1 10.4H72v9.8h-9.8v-9.8zm.8.8h.8v8.1H63v-8.1zm1.5 0h.8v8.1h-.8v-8.1zm1.4 0h.8v8.1h-.8v-8.1zm1.5 0h.8v8.1h-.8v-8.1zm1.5 0h.8v8.1h-.8v-8.1zm1.5 0h.8v8.1h-.8v-8.1z" ></path>
  <path fill-rule="evenodd" clip-rule="evenodd" fill="#00ACD3"
    d="M62.2 41.5H72v9.8h-9.8v-9.8zm.8.8h.8v8.1H63v-8.1zm1.5 0h.8v8.1h-.8v-8.1zm1.4 0h.8v8.1h-.8v-8.1zm1.5 0h.8v8.1h-.8v-8.1zm1.5 0h.8v8.1h-.8v-8.1zm1.5 0h.8v8.1h-.8v-8.1z" ></path>
  <path fill-rule="evenodd" clip-rule="evenodd" fill="#23C2EE"
    d="M62.2 30.2H72V40h-9.8v-9.8zm.8.8h.8v8.1H63V31zm1.5 0h.8v8.1h-.8V31zm1.4 0h.8v8.1h-.8V31zm1.5 0h.8v8.1h-.8V31zm1.5 0h.8v8.1h-.8V31zm1.5 0h.8v8.1h-.8V31z" ></path>
  <path fill-rule="evenodd" clip-rule="evenodd" fill="#00ACD3"
    d="M73.5 52.7h9.8v9.8h-9.8v-9.8zm.8.8h.8v8.1h-.8v-8.1zm1.4 0h.8v8.1h-.8v-8.1zm1.5 0h.8v8.1h-.8v-8.1zm1.5 0h.8v8.1h-.8v-8.1zm1.5 0h.8v8.1h-.8v-8.1zm1.5 0h.8v8.1h-.8v-8.1z" ></path>
  <path fill-rule="evenodd" clip-rule="evenodd" fill="#D4EEF1"
    d="M48.8 78.3c1.5 0 2.7 1.2 2.7 2.7 0 1.5-1.2 2.7-2.7 2.7-1.5 0-2.7-1.2-2.7-2.7 0-1.5 1.2-2.7 2.7-2.7" ></path>
  <path fill-rule="evenodd" clip-rule="evenodd" fill="#3A4D54"
    d="M48.8 79.1c.2 0 .5 0 .7.1-.2.1-.4.4-.4.7 0 .4.4.8.8.8.3 0 .6-.2.7-.4.1.2.1.5.1.7 0 1.1-.9 1.9-1.9 1.9-1.1 0-1.9-.9-1.9-1.9 0-1 .8-1.9 1.9-1.9M1.1 72.8h125.4c-2.7-.7-8.6-1.6-7.7-5.2-5 5.7-16.9 4-20 1.2-3.4 4.9-23 3-24.3-.8-4.2 5-17.3 5-21.5 0-1.4 3.8-21 5.7-24.3.8-3 2.8-15 4.5-20-1.2 1.1 3.5-4.9 4.5-7.6 5.2" ></path>
  <path fill="#BFDBE0"
    d="M56 97.8c-6.7-3.2-10.3-7.5-12.4-12.2-2.5.7-5.5 1.2-8.9 1.4-1.3.1-2.7.1-4.1.1-1.7 0-3.4 0-5.2-.1 6 6 13.6 10.7 27.5 10.8H56z" ></path>
  <path fill="#D4EEF1" d="M46.1 89.9c-.9-1.3-1.8-2.8-2.5-4.3-2.5.7-5.5 1.2-8.9 1.4 2.3 1.2 5.7 2.4 11.4 2.9z" ></path>
</symbol>
<symbol viewBox="0 0 128 128" id="git">
  <path fill="#F34F29"
    d="M124.737 58.378L69.621 3.264c-3.172-3.174-8.32-3.174-11.497 0L46.68 14.71l14.518 14.518c3.375-1.139 7.243-.375 9.932 2.314 2.703 2.706 3.461 6.607 2.294 9.993l13.992 13.993c3.385-1.167 7.292-.413 9.994 2.295 3.78 3.777 3.78 9.9 0 13.679a9.673 9.673 0 01-13.683 0 9.677 9.677 0 01-2.105-10.521L68.574 47.933l-.002 34.341a9.708 9.708 0 012.559 1.828c3.778 3.777 3.778 9.898 0 13.683-3.779 3.777-9.904 3.777-13.679 0-3.778-3.784-3.778-9.905 0-13.683a9.65 9.65 0 013.167-2.11V47.333a9.581 9.581 0 01-3.167-2.111c-2.862-2.86-3.551-7.06-2.083-10.576L41.056 20.333 3.264 58.123a8.133 8.133 0 000 11.5l55.117 55.114c3.174 3.174 8.32 3.174 11.499 0l54.858-54.858a8.135 8.135 0 00-.001-11.501z" ></path>
</symbol>
<symbol viewBox="0 0 128 128" id="github-logo"><g fill="#181616"><path fill-rule="evenodd" clip-rule="evenodd" d="M64 5.103c-33.347 0-60.388 27.035-60.388 60.388 0 26.682 17.303 49.317 41.297 57.303 3.017.56 4.125-1.31 4.125-2.905 0-1.44-.056-6.197-.082-11.243-16.8 3.653-20.345-7.125-20.345-7.125-2.747-6.98-6.705-8.836-6.705-8.836-5.48-3.748.413-3.67.413-3.67 6.063.425 9.257 6.223 9.257 6.223 5.386 9.23 14.127 6.562 17.573 5.02.542-3.903 2.107-6.568 3.834-8.076-13.413-1.525-27.514-6.704-27.514-29.843 0-6.593 2.36-11.98 6.223-16.21-.628-1.52-2.695-7.662.584-15.98 0 0 5.07-1.623 16.61 6.19C53.7 35 58.867 34.327 64 34.304c5.13.023 10.3.694 15.127 2.033 11.526-7.813 16.59-6.19 16.59-6.19 3.287 8.317 1.22 14.46.593 15.98 3.872 4.23 6.215 9.617 6.215 16.21 0 23.194-14.127 28.3-27.574 29.796 2.167 1.874 4.097 5.55 4.097 11.183 0 8.08-.07 14.583-.07 16.572 0 1.607 1.088 3.49 4.148 2.897 23.98-7.994 41.263-30.622 41.263-57.294C124.388 32.14 97.35 5.104 64 5.104z"></path><path d="M26.484 91.806c-.133.3-.605.39-1.035.185-.44-.196-.685-.605-.543-.906.13-.31.603-.395 1.04-.188.44.197.69.61.537.91zm2.446 2.729c-.287.267-.85.143-1.232-.28-.396-.42-.47-.983-.177-1.254.298-.266.844-.14 1.24.28.394.426.472.984.17 1.255zM31.312 98.012c-.37.258-.976.017-1.35-.52-.37-.538-.37-1.183.01-1.44.373-.258.97-.025 1.35.507.368.545.368 1.19-.01 1.452zm3.261 3.361c-.33.365-1.036.267-1.552-.23-.527-.487-.674-1.18-.343-1.544.336-.366 1.045-.264 1.564.23.527.486.686 1.18.333 1.543zm4.5 1.951c-.147.473-.825.688-1.51.486-.683-.207-1.13-.76-.99-1.238.14-.477.823-.7 1.512-.485.683.206 1.13.756.988 1.237zm4.943.361c.017.498-.563.91-1.28.92-.723.017-1.308-.387-1.315-.877 0-.503.568-.91 1.29-.924.717-.013 1.306.387 1.306.88zm4.598-.782c.086.485-.413.984-1.126 1.117-.7.13-1.35-.172-1.44-.653-.086-.498.422-.997 1.122-1.126.714-.123 1.354.17 1.444.663zm0 0"></path></g></symbol>
<symbol role="img" viewBox="0 0 24 24" fill="currentColor" id="github">
  <title>GitHub</title>
  <path 
    d="M12 .297c-6.63 0-12 5.373-12 12 0 5.303 3.438 9.8 8.205 11.385.6.113.82-.258.82-.577 0-.285-.01-1.04-.015-2.04-3.338.724-4.042-1.61-4.042-1.61C4.422 18.07 3.633 17.7 3.633 17.7c-1.087-.744.084-.729.084-.729 1.205.084 1.838 1.236 1.838 1.236 1.07 1.835 2.809 1.305 3.495.998.108-.776.417-1.305.76-1.605-2.665-.3-5.466-1.332-5.466-5.93 0-1.31.465-2.38 1.235-3.22-.135-.303-.54-1.523.105-3.176 0 0 1.005-.322 3.3 1.23.96-.267 1.98-.399 3-.405 1.02.006 2.04.138 3 .405 2.28-1.552 3.285-1.23 3.285-1.23.645 1.653.24 2.873.12 3.176.765.84 1.23 1.91 1.23 3.22 0 4.61-2.805 5.625-5.475 5.92.42.36.81 1.096.81 2.22 0 1.606-.015 2.896-.015 3.286 0 .315.21.69.825.57C20.565 22.092 24 17.592 24 12.297c0-6.627-5.373-12-12-12" ></path>
</symbol>
<symbol viewBox="0 0 128 128" id="githubactions"><path fill="#2088ff" d="M26.666 0C11.97 0 0 11.97 0 26.666c0 12.87 9.181 23.651 21.334 26.13v37.87c0 11.77 9.68 21.334 21.332 21.334h.195c1.302 9.023 9.1 16 18.473 16C71.612 128 80 119.612 80 109.334s-8.388-18.668-18.666-18.668c-9.372 0-17.17 6.977-18.473 16h-.195c-8.737 0-16-7.152-16-16V63.779a18.514 18.514 0 0 0 13.24 5.555h2.955c1.303 9.023 9.1 16 18.473 16 9.372 0 17.169-6.977 18.47-16h11.057c1.303 9.023 9.1 16 18.473 16 10.278 0 18.666-8.39 18.666-18.668C128 56.388 119.612 48 109.334 48c-9.373 0-17.171 6.977-18.473 16H79.805c-1.301-9.023-9.098-16-18.471-16s-17.171 6.977-18.473 16h-2.955c-6.433 0-11.793-4.589-12.988-10.672 14.58-.136 26.416-12.05 26.416-26.662C53.334 11.97 41.362 0 26.666 0zm0 5.334A21.292 21.292 0 0 1 48 26.666 21.294 21.294 0 0 1 26.666 48 21.292 21.292 0 0 1 5.334 26.666 21.29 21.29 0 0 1 26.666 5.334zm-5.215 7.541C18.67 12.889 16 15.123 16 18.166v17.043c0 4.043 4.709 6.663 8.145 4.533l13.634-8.455c3.257-2.02 3.274-7.002.032-9.045l-13.635-8.59a5.024 5.024 0 0 0-2.725-.777zm-.117 5.291 13.635 8.588-13.635 8.455V18.166zm40 35.168a13.29 13.29 0 0 1 13.332 13.332A13.293 13.293 0 0 1 61.334 80 13.294 13.294 0 0 1 48 66.666a13.293 13.293 0 0 1 13.334-13.332zm48 0a13.29 13.29 0 0 1 13.332 13.332A13.293 13.293 0 0 1 109.334 80 13.294 13.294 0 0 1 96 66.666a13.293 13.293 0 0 1 13.334-13.332zm-42.568 6.951a2.667 2.667 0 0 0-1.887.78l-6.3 6.294-2.093-2.084a2.667 2.667 0 0 0-3.771.006 2.667 2.667 0 0 0 .008 3.772l3.974 3.96a2.667 2.667 0 0 0 3.766-.001l8.185-8.174a2.667 2.667 0 0 0 .002-3.772 2.667 2.667 0 0 0-1.884-.78zm48 0a2.667 2.667 0 0 0-1.887.78l-6.3 6.294-2.093-2.084a2.667 2.667 0 0 0-3.771.006 2.667 2.667 0 0 0 .008 3.772l3.974 3.96a2.667 2.667 0 0 0 3.766-.001l8.185-8.174a2.667 2.667 0 0 0 .002-3.772 2.667 2.667 0 0 0-1.884-.78zM61.334 96a13.293 13.293 0 0 1 13.332 13.334 13.29 13.29 0 0 1-13.332 13.332A13.293 13.293 0 0 1 48 109.334 13.294 13.294 0 0 1 61.334 96zM56 105.334c-2.193 0-4 1.807-4 4 0 2.195 1.808 4 4 4s4-1.805 4-4c0-2.193-1.807-4-4-4zm10.666 0c-2.193 0-4 1.807-4 4 0 2.195 1.808 4 4 4s4-1.805 4-4c0-2.193-1.807-4-4-4zM56 108c.75 0 1.334.585 1.334 1.334 0 .753-.583 1.332-1.334 1.332-.75 0-1.334-.58-1.334-1.332 0-.75.585-1.334 1.334-1.334zm10.666 0c.75 0 1.334.585 1.334 1.334 0 .753-.583 1.332-1.334 1.332-.75 0-1.332-.58-1.332-1.332 0-.75.583-1.334 1.332-1.334z"></path><path fill="#79b8ff" d="M109.334 90.666c-9.383 0-17.188 6.993-18.477 16.031a2.667 2.667 0 0 0-.265-.011l-2.7.09a2.667 2.667 0 0 0-2.578 2.751 2.667 2.667 0 0 0 2.752 2.578l2.7-.087a2.667 2.667 0 0 0 .097-.006C92.17 121.029 99.965 128 109.334 128c10.278 0 18.666-8.388 18.666-18.666s-8.388-18.668-18.666-18.668zm0 5.334a13.293 13.293 0 0 1 13.332 13.334 13.29 13.29 0 0 1-13.332 13.332A13.293 13.293 0 0 1 96 109.334 13.294 13.294 0 0 1 109.334 96z"></path></symbol>
<symbol fill="#02303A" role="img" viewBox="0 0 24 24" id="gradle">
  <title>Gradle</title>
  <path     d="M22.695 4.297a3.807 3.807 0 0 0-5.29-.09.368.368 0 0 0 0 .533l.46.47a.363.363 0 0 0 .474.032 2.182 2.182 0 0 1 2.86 3.291c-3.023 3.02-7.056-5.447-16.211-1.083a1.24 1.24 0 0 0-.534 1.745l1.571 2.713a1.238 1.238 0 0 0 1.681.461l.037-.02-.029.02.688-.384a16.083 16.083 0 0 0 2.193-1.635.384.384 0 0 1 .499-.016.357.357 0 0 1 .016.534 16.435 16.435 0 0 1-2.316 1.741H8.77l-.696.39a1.958 1.958 0 0 1-.963.25 1.987 1.987 0 0 1-1.726-.989L3.9 9.696C1.06 11.72-.686 15.603.26 20.522a.363.363 0 0 0 .354.296h1.675a.363.363 0 0 0 .37-.331 2.478 2.478 0 0 1 4.915 0 .36.36 0 0 0 .357.317h1.638a.363.363 0 0 0 .357-.317 2.478 2.478 0 0 1 4.914 0 .363.363 0 0 0 .358.317h1.627a.363.363 0 0 0 .363-.357c.037-2.294.656-4.93 2.42-6.25 6.108-4.57 4.502-8.486 3.088-9.9zm-6.229 6.901l-1.165-.584a.73.73 0 1 1 1.165.587z" ></path>
</symbol>
<symbol viewBox="0 0 128 128" id="html5">
  <path fill="#E44D26" d="M19.037 113.876L9.032 1.661h109.936l-10.016 112.198-45.019 12.48z" ></path>
  <path fill="#F16529" d="M64 116.8l36.378-10.086 8.559-95.878H64z" ></path>
  <path fill="#EBEBEB"
    d="M64 52.455H45.788L44.53 38.361H64V24.599H29.489l.33 3.692 3.382 37.927H64zm0 35.743l-.061.017-15.327-4.14-.979-10.975H33.816l1.928 21.609 28.193 7.826.063-.017z" ></path>
  <path fill="#fff"
    d="M63.952 52.455v13.763h16.947l-1.597 17.849-15.35 4.143v14.319l28.215-7.82.207-2.325 3.234-36.233.335-3.696h-3.708zm0-27.856v13.762h33.244l.276-3.092.628-6.978.329-3.692z" ></path>
</symbol>
<symbol viewBox="0 0 128 128" id="intellij">
  <defs>
    <linearGradient id="a" gradientUnits="userSpaceOnUse" x1="11.16" y1="59.21" x2="58.94" y2="56.78" gradientTransform="rotate(.104) scale(1.21905)">
      <stop offset=".09" stop-color="#fc801d"></stop>
      <stop offset=".23" stop-color="#b07f61"></stop>
      <stop offset=".41" stop-color="#577db3"></stop>
      <stop offset=".53" stop-color="#1e7ce6"></stop>
      <stop offset=".59" stop-color="#087cfa"></stop>
    </linearGradient>
    <linearGradient id="b" gradientUnits="userSpaceOnUse" x1="89.05" y1="54.12" x2="73.12" y2="6.52" gradientTransform="rotate(.104) scale(1.21905)">
      <stop offset="0" stop-color="#fe2857"></stop>
      <stop offset=".08" stop-color="#cb3979"></stop>
      <stop offset=".16" stop-color="#9e4997"></stop>
      <stop offset=".25" stop-color="#7557b2"></stop>
      <stop offset=".34" stop-color="#5362c8"></stop>
      <stop offset=".44" stop-color="#386cda"></stop>
      <stop offset=".54" stop-color="#2373e8"></stop>
      <stop offset=".66" stop-color="#1478f2"></stop>
      <stop offset=".79" stop-color="#0b7bf8"></stop>
      <stop offset="1" stop-color="#087cfa"></stop>
    </linearGradient>
    <linearGradient id="c" gradientUnits="userSpaceOnUse" x1="18.72" y1="26.61" x2="78.8" y2="125.99" gradientTransform="rotate(.104) scale(1.21905)">
      <stop offset="0" stop-color="#fe2857"></stop>
      <stop offset=".08" stop-color="#fe295f"></stop>
      <stop offset=".21" stop-color="#ff2d76"></stop>
      <stop offset=".3" stop-color="#ff318c"></stop>
      <stop offset=".38" stop-color="#ea3896"></stop>
      <stop offset=".55" stop-color="#b248ae"></stop>
      <stop offset=".79" stop-color="#5a63d6"></stop>
      <stop offset="1" stop-color="#087cfa"></stop>
    </linearGradient>
  </defs>
  <path fill="url(#a)" d="M23.492 88.027 6.277 74.434 16.41 55.676l15.223 5.094Zm0 0"></path>
  <path fill="#087cfa" d="m121.988 36.68-2.105 67.78L74.8 122.517l-24.55-15.849Zm0 0"></path>
  <path fill="url(#b)" d="M121.988 36.68 99.68 58.44 71.035 23.297l14.14-15.899Zm0 0"></path>
  <path fill="url(#c)" d="m50.25 106.668-35.852 12.957 7.508-26.293 9.727-32.562L4.96 51.848 21.906 5.484l38.301 4.524L99.68 58.44Zm0 0"></path>
  <path fill="#000" d="M27.43 27.43h73.14v73.14H27.43Zm0 0"></path>
  <path fill="#fff" d="M36.547 86.746h27.43v4.574h-27.43Zm13.691-45.152v-4.996h-13.64v4.996h3.824v17.261h-3.824v5h13.64v-5h-3.816V41.594Zm13.078 22.648a10.802 10.802 0 0 1-5.351-1.219 12.299 12.299 0 0 1-3.559-2.875l3.766-4.207c.687.778 1.484 1.45 2.367 2a4.849 4.849 0 0 0 2.621.73 3.46 3.46 0 0 0 2.668-1.058 5.07 5.07 0 0 0 .977-3.449V36.57h6.093v17.86a12.384 12.384 0 0 1-.668 4.254 7.919 7.919 0 0 1-4.964 4.879 12.097 12.097 0 0 1-4.036.632"></path>
</symbol>
<symbol viewBox="0 0 128 128" id="java"><path fill="#0074BD" d="M47.617 98.12s-4.767 2.774 3.397 3.71c9.892 1.13 14.947.968 25.845-1.092 0 0 2.871 1.795 6.873 3.351-24.439 10.47-55.308-.607-36.115-5.969zm-2.988-13.665s-5.348 3.959 2.823 4.805c10.567 1.091 18.91 1.18 33.354-1.6 0 0 1.993 2.025 5.132 3.131-29.542 8.64-62.446.68-41.309-6.336z"></path><path fill="#EA2D2E" d="M69.802 61.271c6.025 6.935-1.58 13.17-1.58 13.17s15.289-7.891 8.269-17.777c-6.559-9.215-11.587-13.792 15.635-29.58 0 .001-42.731 10.67-22.324 34.187z"></path><path fill="#0074BD" d="M102.123 108.229s3.529 2.91-3.888 5.159c-14.102 4.272-58.706 5.56-71.094.171-4.451-1.938 3.899-4.625 6.526-5.192 2.739-.593 4.303-.485 4.303-.485-4.953-3.487-32.013 6.85-13.743 9.815 49.821 8.076 90.817-3.637 77.896-9.468zM49.912 70.294s-22.686 5.389-8.033 7.348c6.188.828 18.518.638 30.011-.326 9.39-.789 18.813-2.474 18.813-2.474s-3.308 1.419-5.704 3.053c-23.042 6.061-67.544 3.238-54.731-2.958 10.832-5.239 19.644-4.643 19.644-4.643zm40.697 22.747c23.421-12.167 12.591-23.86 5.032-22.285-1.848.385-2.677.72-2.677.72s.688-1.079 2-1.543c14.953-5.255 26.451 15.503-4.823 23.725 0-.002.359-.327.468-.617z"></path><path fill="#EA2D2E" d="M76.491 1.587S89.459 14.563 64.188 34.51c-20.266 16.006-4.621 25.13-.007 35.559-11.831-10.673-20.509-20.07-14.688-28.815C58.041 28.42 81.722 22.195 76.491 1.587z"></path><path fill="#0074BD" d="M52.214 126.021c22.476 1.437 57-.8 57.817-11.436 0 0-1.571 4.032-18.577 7.231-19.186 3.612-42.854 3.191-56.887.874 0 .001 2.875 2.381 17.647 3.331z"></path></symbol>
<symbol viewBox="0 0 128 128" id="javascript"><path fill="#F0DB4F" d="M1.408 1.408h125.184v125.185H1.408z"></path><path fill="#323330" d="M116.347 96.736c-.917-5.711-4.641-10.508-15.672-14.981-3.832-1.761-8.104-3.022-9.377-5.926-.452-1.69-.512-2.642-.226-3.665.821-3.32 4.784-4.355 7.925-3.403 2.023.678 3.938 2.237 5.093 4.724 5.402-3.498 5.391-3.475 9.163-5.879-1.381-2.141-2.118-3.129-3.022-4.045-3.249-3.629-7.676-5.498-14.756-5.355l-3.688.477c-3.534.893-6.902 2.748-8.877 5.235-5.926 6.724-4.236 18.492 2.975 23.335 7.104 5.332 17.54 6.545 18.873 11.531 1.297 6.104-4.486 8.08-10.234 7.378-4.236-.881-6.592-3.034-9.139-6.949-4.688 2.713-4.688 2.713-9.508 5.485 1.143 2.499 2.344 3.63 4.26 5.795 9.068 9.198 31.76 8.746 35.83-5.176.165-.478 1.261-3.666.38-8.581zM69.462 58.943H57.753l-.048 30.272c0 6.438.333 12.34-.714 14.149-1.713 3.558-6.152 3.117-8.175 2.427-2.059-1.012-3.106-2.451-4.319-4.485-.333-.584-.583-1.036-.667-1.071l-9.52 5.83c1.583 3.249 3.915 6.069 6.902 7.901 4.462 2.678 10.459 3.499 16.731 2.059 4.082-1.189 7.604-3.652 9.448-7.401 2.666-4.915 2.094-10.864 2.07-17.444.06-10.735.001-21.468.001-32.237z"></path></symbol>
<symbol role="img" fill="currentColor" viewBox="0 0 24 24" id="linkedin">
  <title>LinkedIn</title>
  <path 
    d="M20.447 20.452h-3.554v-5.569c0-1.328-.027-3.037-1.852-3.037-1.853 0-2.136 1.445-2.136 2.939v5.667H9.351V9h3.414v1.561h.046c.477-.9 1.637-1.85 3.37-1.85 3.601 0 4.267 2.37 4.267 5.455v6.286zM5.337 7.433c-1.144 0-2.063-.926-2.063-2.065 0-1.138.92-2.063 2.063-2.063 1.14 0 2.064.925 2.064 2.063 0 1.139-.925 2.065-2.064 2.065zm1.782 13.019H3.555V9h3.564v11.452zM22.225 0H1.771C.792 0 0 .774 0 1.729v20.542C0 23.227.792 24 1.771 24h20.451C23.2 24 24 23.227 24 22.271V1.729C24 .774 23.2 0 22.222 0h.003z" ></path>
</symbol>
<symbol viewBox="0 0 24 24" fill="currentColor" class="icon icon-tabler icons-tabler-filled icon-tabler-mail" id="mail"><path stroke="none" d="M0 0h24v24H0z" fill="none"></path><path d="M22 7.535v9.465a3 3 0 0 1 -2.824 2.995l-.176 .005h-14a3 3 0 0 1 -2.995 -2.824l-.005 -.176v-9.465l9.445 6.297l.116 .066a1 1 0 0 0 .878 0l.116 -.066l9.445 -6.297z" ></path><path d="M19 4c1.08 0 2.027 .57 2.555 1.427l-9.555 6.37l-9.555 -6.37a2.999 2.999 0 0 1 2.354 -1.42l.201 -.007h14z" ></path></symbol>
<symbol role="img" viewBox="0 0 24 24" id="mantine">
  <title>Mantine</title>
  <path   fill="#339AF0"
    d="M12 0C5.377 0 0 5.377 0 12s5.377 12 12 12 12-5.377 12-12S18.623 0 12 0zm-1.613 6.15a.91.91 0 0 1 .59.176c.43.317.825.68 1.177 1.082h2.588a.91.91 0 0 1 .912.906.909.909 0 0 1-.912.907h-1.43c.4.908.604 1.889.602 2.88a7.133 7.133 0 0 1-.601 2.883h1.427a.91.91 0 0 1 .914.907.91.91 0 0 1-.914.906h-2.588a7.399 7.399 0 0 1-1.175 1.082.919.919 0 0 1-1.28-.19.904.904 0 0 1 .191-1.268 5.322 5.322 0 0 0 2.2-4.32c0-1.715-.801-3.29-2.2-4.32a.906.906 0 0 1-.191-1.268H9.7a.916.916 0 0 1 .688-.363zm-.778 4.295a1.36 1.36 0 0 1 1.354 1.354v.033a1.36 1.36 0 0 1-1.354 1.32 1.36 1.36 0 0 1-1.353-1.32v-.033a1.36 1.36 0 0 1 1.353-1.354z" ></path>
</symbol>
<symbol viewBox="0 0 128 128" id="maven">
  <defs>
    <linearGradient id="i" gradientUnits="userSpaceOnUse" x1="-7274.8" y1="2082.507" x2="-7243.872" y2="2046.343" gradientTransform="matrix(-.092 -.464 -.464 .092 318.72 -3557.936)">
      <stop offset="0" style="stop-color:#f69923;stop-opacity:1"></stop>
      <stop offset=".312" style="stop-color:#f79a23;stop-opacity:1"></stop>
      <stop offset=".838" style="stop-color:#e97826;stop-opacity:1"></stop>
    </linearGradient>
    <linearGradient id="n" gradientUnits="userSpaceOnUse" x1="-7503.689" y1="2086.595" x2="-7283.036" y2="2086.595" gradientTransform="matrix(-.092 -.464 -.464 .092 318.72 -3557.936)">
      <stop offset=".323" style="stop-color:#9e2064;stop-opacity:1"></stop>
      <stop offset=".63" style="stop-color:#c92037;stop-opacity:1"></stop>
      <stop offset=".751" style="stop-color:#cd2335;stop-opacity:1"></stop>
      <stop offset="1" style="stop-color:#e97826;stop-opacity:1"></stop>
    </linearGradient>
    <linearGradient id="o" gradientUnits="userSpaceOnUse" x1="-7477.053" y1="2064.42" x2="-7345.566" y2="2064.42" gradientTransform="matrix(-.092 -.464 -.464 .092 318.72 -3557.936)">
      <stop offset="0" style="stop-color:#282662;stop-opacity:1"></stop>
      <stop offset=".095" style="stop-color:#662e8d;stop-opacity:1"></stop>
      <stop offset=".788" style="stop-color:#9f2064;stop-opacity:1"></stop>
      <stop offset=".949" style="stop-color:#cd2032;stop-opacity:1"></stop>
    </linearGradient>
    <linearGradient id="p" gradientUnits="userSpaceOnUse" x1="-7491.296" y1="2088.633" x2="-7270.643" y2="2088.633" gradientTransform="matrix(-.092 -.464 -.464 .092 318.72 -3557.936)">
      <stop offset=".323" style="stop-color:#9e2064;stop-opacity:1"></stop>
      <stop offset=".63" style="stop-color:#c92037;stop-opacity:1"></stop>
      <stop offset=".751" style="stop-color:#cd2335;stop-opacity:1"></stop>
      <stop offset="1" style="stop-color:#e97826;stop-opacity:1"></stop>
    </linearGradient>
    <linearGradient id="q" gradientUnits="userSpaceOnUse" x1="-7475.203" y1="2085.61" x2="-7359.244" y2="2085.61" gradientTransform="matrix(-.092 -.464 -.464 .092 318.72 -3557.936)">
      <stop offset="0" style="stop-color:#282662;stop-opacity:1"></stop>
      <stop offset=".095" style="stop-color:#662e8d;stop-opacity:1"></stop>
      <stop offset=".788" style="stop-color:#9f2064;stop-opacity:1"></stop>
      <stop offset=".949" style="stop-color:#cd2032;stop-opacity:1"></stop>
    </linearGradient>
    <linearGradient id="r" gradientUnits="userSpaceOnUse" x1="-7491.296" y1="2065.799" x2="-7270.643" y2="2065.799" gradientTransform="matrix(-.092 -.464 -.464 .092 318.72 -3557.936)">
      <stop offset=".323" style="stop-color:#9e2064;stop-opacity:1"></stop>
      <stop offset=".63" style="stop-color:#c92037;stop-opacity:1"></stop>
      <stop offset=".751" style="stop-color:#cd2335;stop-opacity:1"></stop>
      <stop offset="1" style="stop-color:#e97826;stop-opacity:1"></stop>
    </linearGradient>
    <linearGradient id="s" gradientUnits="userSpaceOnUse" x1="-7504.984" y1="2066.905" x2="-7284.331" y2="2066.905" gradientTransform="matrix(-.092 -.464 -.464 .092 318.72 -3557.936)">
      <stop offset=".323" style="stop-color:#9e2064;stop-opacity:1"></stop>
      <stop offset=".63" style="stop-color:#c92037;stop-opacity:1"></stop>
      <stop offset=".751" style="stop-color:#cd2335;stop-opacity:1"></stop>
      <stop offset="1" style="stop-color:#e97826;stop-opacity:1"></stop>
    </linearGradient>
    <linearGradient id="v" gradientUnits="userSpaceOnUse" x1="-7491.296" y1="2058.959" x2="-7270.643" y2="2058.959" gradientTransform="matrix(-.092 -.464 -.464 .092 318.72 -3557.936)">
      <stop offset=".323" style="stop-color:#9e2064;stop-opacity:1"></stop>
      <stop offset=".63" style="stop-color:#c92037;stop-opacity:1"></stop>
      <stop offset=".751" style="stop-color:#cd2335;stop-opacity:1"></stop>
      <stop offset="1" style="stop-color:#e97826;stop-opacity:1"></stop>
    </linearGradient>
    <linearGradient id="y" gradientUnits="userSpaceOnUse" x1="-7491.296" y1="2059.762" x2="-7270.643" y2="2059.762" gradientTransform="matrix(-.092 -.464 -.464 .092 318.72 -3557.936)">
      <stop offset=".323" style="stop-color:#9e2064;stop-opacity:1"></stop>
      <stop offset=".63" style="stop-color:#c92037;stop-opacity:1"></stop>
      <stop offset=".751" style="stop-color:#cd2335;stop-opacity:1"></stop>
      <stop offset="1" style="stop-color:#e97826;stop-opacity:1"></stop>
    </linearGradient>
    <linearGradient id="z" gradientUnits="userSpaceOnUse" x1="-8307.632" y1="2040.008" x2="-8276.704" y2="2003.844" gradientTransform="matrix(.296 -.448 -.448 -.296 3456.332 -3102.04)">
      <stop offset="0" style="stop-color:#f69923;stop-opacity:1"></stop>
      <stop offset=".312" style="stop-color:#f79a23;stop-opacity:1"></stop>
      <stop offset=".838" style="stop-color:#e97826;stop-opacity:1"></stop>
    </linearGradient>
    <linearGradient id="E" gradientUnits="userSpaceOnUse" x1="-8536.521" y1="2044.096" x2="-8315.868" y2="2044.096" gradientTransform="matrix(.296 -.448 -.448 -.296 3456.332 -3102.04)">
      <stop offset=".323" style="stop-color:#9e2064;stop-opacity:1"></stop>
      <stop offset=".63" style="stop-color:#c92037;stop-opacity:1"></stop>
      <stop offset=".751" style="stop-color:#cd2335;stop-opacity:1"></stop>
      <stop offset="1" style="stop-color:#e97826;stop-opacity:1"></stop>
    </linearGradient>
    <linearGradient id="F" gradientUnits="userSpaceOnUse" x1="-8509.885" y1="2021.921" x2="-8378.397" y2="2021.921" gradientTransform="matrix(.296 -.448 -.448 -.296 3456.332 -3102.04)">
      <stop offset="0" style="stop-color:#282662;stop-opacity:1"></stop>
      <stop offset=".095" style="stop-color:#662e8d;stop-opacity:1"></stop>
      <stop offset=".788" style="stop-color:#9f2064;stop-opacity:1"></stop>
      <stop offset=".949" style="stop-color:#cd2032;stop-opacity:1"></stop>
    </linearGradient>
    <linearGradient id="G" gradientUnits="userSpaceOnUse" x1="-8524.128" y1="2046.134" x2="-8303.475" y2="2046.134" gradientTransform="matrix(.296 -.448 -.448 -.296 3456.332 -3102.04)">
      <stop offset=".323" style="stop-color:#9e2064;stop-opacity:1"></stop>
      <stop offset=".63" style="stop-color:#c92037;stop-opacity:1"></stop>
      <stop offset=".751" style="stop-color:#cd2335;stop-opacity:1"></stop>
      <stop offset="1" style="stop-color:#e97826;stop-opacity:1"></stop>
    </linearGradient>
    <linearGradient id="H" gradientUnits="userSpaceOnUse" x1="-8508.035" y1="2043.111" x2="-8392.076" y2="2043.111" gradientTransform="matrix(.296 -.448 -.448 -.296 3456.332 -3102.04)">
      <stop offset="0" style="stop-color:#282662;stop-opacity:1"></stop>
      <stop offset=".095" style="stop-color:#662e8d;stop-opacity:1"></stop>
      <stop offset=".788" style="stop-color:#9f2064;stop-opacity:1"></stop>
      <stop offset=".949" style="stop-color:#cd2032;stop-opacity:1"></stop>
    </linearGradient>
    <linearGradient id="I" gradientUnits="userSpaceOnUse" x1="-8524.128" y1="2023.3" x2="-8303.475" y2="2023.3" gradientTransform="matrix(.296 -.448 -.448 -.296 3456.332 -3102.04)">
      <stop offset=".323" style="stop-color:#9e2064;stop-opacity:1"></stop>
      <stop offset=".63" style="stop-color:#c92037;stop-opacity:1"></stop>
      <stop offset=".751" style="stop-color:#cd2335;stop-opacity:1"></stop>
      <stop offset="1" style="stop-color:#e97826;stop-opacity:1"></stop>
    </linearGradient>
    <linearGradient id="J" gradientUnits="userSpaceOnUse" x1="-8537.816" y1="2024.407" x2="-8317.163" y2="2024.407" gradientTransform="matrix(.296 -.448 -.448 -.296 3456.332 -3102.04)">
      <stop offset=".323" style="stop-color:#9e2064;stop-opacity:1"></stop>
      <stop offset=".63" style="stop-color:#c92037;stop-opacity:1"></stop>
      <stop offset=".751" style="stop-color:#cd2335;stop-opacity:1"></stop>
      <stop offset="1" style="stop-color:#e97826;stop-opacity:1"></stop>
    </linearGradient>
    <linearGradient id="M" gradientUnits="userSpaceOnUse" x1="-8524.128" y1="2016.46" x2="-8303.475" y2="2016.46" gradientTransform="matrix(.296 -.448 -.448 -.296 3456.332 -3102.04)">
      <stop offset=".323" style="stop-color:#9e2064;stop-opacity:1"></stop>
      <stop offset=".63" style="stop-color:#c92037;stop-opacity:1"></stop>
      <stop offset=".751" style="stop-color:#cd2335;stop-opacity:1"></stop>
      <stop offset="1" style="stop-color:#e97826;stop-opacity:1"></stop>
    </linearGradient>
    <clipPath id="b">
      <path d="M0 0h128v128H0z"></path>
    </clipPath>
    <clipPath id="c">
      <path d="M0 0h128v128H0z"></path>
    </clipPath>
    <clipPath id="d">
      <path d="M0 0h128v128H0z"></path>
    </clipPath>
    <clipPath id="e">
      <path d="M0 0h128v128H0z"></path>
    </clipPath>
    <clipPath id="f">
      <path d="M0 0h128v128H0z"></path>
    </clipPath>
    <clipPath id="g">
      <path d="M0 0h128v128H0z"></path>
    </clipPath>
    <clipPath id="h">
      <path d="M0 0h128v128H0z"></path>
    </clipPath>
    <mask id="k">
      <g filter="url(#a)">
        <path style="fill:#000;fill-opacity:.34902;stroke:none" d="M0 0h128v128H0z"></path>
      </g>
    </mask>
    <mask id="m">
      <g filter="url(#a)">
        <path style="fill:#000;fill-opacity:.34902;stroke:none" d="M0 0h128v128H0z"></path>
      </g>
    </mask>
    <mask id="u">
      <g filter="url(#a)">
        <path style="fill:#000;fill-opacity:.34902;stroke:none" d="M0 0h128v128H0z"></path>
      </g>
    </mask>
    <mask id="x">
      <g filter="url(#a)">
        <path style="fill:#000;fill-opacity:.34902;stroke:none" d="M0 0h128v128H0z"></path>
      </g>
    </mask>
    <mask id="B">
      <g filter="url(#a)">
        <path style="fill:#000;fill-opacity:.34902;stroke:none" d="M0 0h128v128H0z"></path>
      </g>
    </mask>
    <mask id="D">
      <g filter="url(#a)">
        <path style="fill:#000;fill-opacity:.34902;stroke:none" d="M0 0h128v128H0z"></path>
      </g>
    </mask>
    <mask id="L">
      <g filter="url(#a)">
        <path style="fill:#000;fill-opacity:.34902;stroke:none" d="M0 0h128v128H0z"></path>
      </g>
    </mask>
    <g id="j" clip-path="url(#b)">
      <path style="stroke:none;fill-rule:nonzero;fill:#be202e;fill-opacity:1" d="M43.695 53.98c-.265.293-.543.567-.824.844.145-.133.293-.289.43-.433.14-.13.27-.266.394-.41Zm0 0"></path>
    </g>
    <g id="l" clip-path="url(#c)">
      <path style="stroke:none;fill-rule:nonzero;fill:#be202e;fill-opacity:1" d="M41.602 49.426c.046-.04.082-.086.125-.121.18-.18.363-.36.511-.543-.199.218-.425.43-.64.664Zm0 0"></path>
    </g>
    <g id="t" clip-path="url(#d)">
      <path style="stroke:none;fill-rule:nonzero;fill:#be202e;fill-opacity:1" d="M43.309 54.398c-.133.149-.282.278-.43.434a5.68 5.68 0 0 1 .43-.434Zm0 0"></path>
    </g>
    <g id="w" clip-path="url(#e)">
      <path style="stroke:none;fill-rule:nonzero;fill:#be202e;fill-opacity:1" d="M41.602 49.438c.046-.04.082-.086.14-.133-.047.035-.082.082-.14.133Zm0 0"></path>
    </g>
    <g id="A" clip-path="url(#f)">
      <path style="stroke:none;fill-rule:nonzero;fill:#be202e;fill-opacity:1" d="M79.602 62.586c-.45.023-.895.023-1.336.023h.687c.215.004.43-.004.649-.023Zm0 0"></path>
    </g>
    <g id="C" clip-path="url(#g)">
      <path style="stroke:none;fill-rule:nonzero;fill:#be202e;fill-opacity:1" d="M81.535 57.258h.2c.288 0 .578 0 .85-.035-.339 0-.69 0-1.046.023Zm0 0"></path>
    </g>
    <g id="K" clip-path="url(#h)">
      <path style="stroke:none;fill-rule:nonzero;fill:#be202e;fill-opacity:1" d="M78.953 62.621h-.687a6.56 6.56 0 0 1 .687 0Zm0 0"></path>
    </g>
    <filter id="a" filterUnits="objectBoundingBox" x="0%" y="0%" width="100%" height="100%">
      <feColorMatrix in="SourceGraphic" values="0 0 0 0 1 0 0 0 0 1 0 0 0 0 1 0 0 0 1 0"></feColorMatrix>
    </filter>
  </defs>
  <path style="stroke:none;fill-rule:nonzero;fill:url(#i)" d="M23.902 10.133a38.039 38.039 0 0 0-1.597 10.62l5.707 2.763a72.4 72.4 0 0 1 .398-10.164c.024-.23.047-.368.047-.368 0 .125-.035.243-.047.368a64.129 64.129 0 0 0-.012 10.027 110.54 110.54 0 0 0 8.457-8 12.174 12.174 0 0 0-6.37-6.805s-5.055-2.039-6.583 1.559Zm0 0"></path>
  <path style="stroke:none;fill-rule:nonzero;fill:#be202e;fill-opacity:1" d="M43.695 53.98c-.265.293-.543.567-.824.844.145-.133.293-.289.43-.433.14-.13.27-.266.394-.41Zm0 0"></path>
  <use xlink:href="#j" mask="url(#k)"></use>
  <path style="stroke:none;fill-rule:nonzero;fill:#be202e;fill-opacity:1" d="M41.602 49.426c.046-.04.082-.086.125-.121.18-.18.363-.36.511-.543-.199.218-.425.43-.64.664Zm0 0"></path>
  <use xlink:href="#l" mask="url(#m)"></use>
  <path style="stroke:none;fill-rule:nonzero;fill:url(#n)" d="M29.52 40.367a231.874 231.874 0 0 1-.72-5.597 112.17 112.17 0 0 1-.523-5.633c0-.114-.02-.227 0-.325a89.502 89.502 0 0 1-.277-5.3l-5.7-2.746c0 .343-.038.699-.054 1.074-.055 1.363-.098 2.8-.11 4.34 0 1.718 0 3.511.032 5.386.039 1.73.113 3.532.203 5.364.094 1.566.195 3.148.324 4.765v.184l7.625 3.86c-.254-1.801-.53-3.594-.8-5.372Zm0 0"></path>
  <path style="stroke:none;fill-rule:nonzero;fill:url(#o)" d="M40.8 85.45c.4 1.421.848 2.89 1.313 4.378v.059c.063.218.114.422.196.629.304 1.004.593 1.894 1.226 3.937A7.694 7.694 0 0 1 47.91 95.5a6.244 6.244 0 0 0-4.164-2.266 13.38 13.38 0 0 0 7.309-11.906 15.897 15.897 0 0 0-.188-1.305 5.387 5.387 0 0 1-3.062 4.61 15.057 15.057 0 0 0 2.437-9.492 29.88 29.88 0 0 0-.297-2.477 12.23 12.23 0 0 1-7.09 9.848l-2.312 2.129c.086.265.156.53.258.808Zm0 0"></path>
  <path style="stroke:none;fill-rule:nonzero;fill:url(#p)" d="M37.813 78.941c-.485-1.808-.97-3.644-1.461-5.496A361.37 361.37 0 0 1 35 68.06c-.445-1.817-.871-3.645-1.297-5.47-.422-1.827-.84-3.737-1.23-5.6-.395-1.864-.762-3.723-1.13-5.575-.132-.672-.25-1.324-.37-2-.211-1.14-.403-2.293-.61-3.45a.618.618 0 0 0-.039-.187l-7.582-3.87c.02.12.028.241.031.366.153 1.715.297 3.457.504 5.2.203 1.738.422 3.558.688 5.363.223 1.52.465 3.027.715 4.55.05.301.113.618.164.915a109.705 109.705 0 0 0 2.555 10.828c.328 1.101.652 2.168.984 3.176.289.847.601 1.699.902 2.539a73.593 73.593 0 0 0 2.399 5.754l7.66 3.879c-.399-1.41-.801-2.84-1.2-4.293-.113-.418-.214-.825-.331-1.243Zm0 0"></path>
  <path style="stroke:none;fill-rule:nonzero;fill:url(#q)" d="M31.79 80.832a59.387 59.387 0 0 0 3.523 6.508c.042.062.085.152.132.215a15.505 15.505 0 0 0-5.84-.45 21.445 21.445 0 0 1 9.41 5.485 9.865 9.865 0 0 1-4.449 2.23 9.838 9.838 0 0 0 4.883-.433 12.014 12.014 0 0 0-2.969 5.789 12.343 12.343 0 0 1 4.82-5.106c2.302 7.625 5.067 15.89 8.138 24.563.476-.617.609-1.43.359-2.164-.567-1.559-4.219-11.871-8.383-25.871-.117-.403-.223-.801-.355-1.203-.036-.114-.063-.215-.098-.336a749.886 749.886 0 0 1-1.305-4.528c-.097-.36-.199-.695-.297-1.058l-7.66-3.88c.024.083.051.16.09.239Zm0 0"></path>
  <path style="stroke:none;fill-rule:nonzero;fill:url(#r)" d="M31.223 45.902c.047.258.093.485.136.746.149.758.282 1.528.438 2.301.16.844.336 1.703.504 2.586.082.445.168.89.261 1.344.278 1.36.579 2.754.887 4.187.399 1.766.797 3.579 1.242 5.465.403 1.785.871 3.645 1.344 5.535.461 1.805.926 3.653 1.438 5.567.449 1.691.93 3.43 1.418 5.199 0 .082.058.176.074.262a632.38 632.38 0 0 0 1.543 5.41.305.305 0 0 0 .035.117l2.312-2.129c-.058 0-.101.051-.18.082a22.18 22.18 0 0 0 5.634-12.453 29.749 29.749 0 0 0-.075-6.95 47.27 47.27 0 0 0-1.109-5.944 78.476 78.476 0 0 0-1.7-5.825 11.615 11.615 0 0 1-1.765 2.551l-.398.438c-.133.148-.282.277-.43.433a13.5 13.5 0 0 0 1.664-10.027 12.698 12.698 0 0 1-2.289 3.965c-.152.183-.332.363-.512.543-.047.035-.082.082-.144.133a13.94 13.94 0 0 0 1.484-3.258c.07-.223.13-.45.172-.68.082-.348.137-.7.188-1.05.02-.235.058-.45.078-.684a9.725 9.725 0 0 0 0-1.653c0-.183 0-.347-.043-.52-.047-.257-.078-.495-.125-.73a41.03 41.03 0 0 0-.598-2.8c-.102-.399-.2-.766-.305-1.098-.047-.133-.07-.262-.117-.403-.125-.363-.226-.699-.336-.976a10.217 10.217 0 0 0-.422-.969 2.14 2.14 0 0 1-.168.457 15.014 15.014 0 0 1-2.597 3.739l2.129-1.95-2.145 1.938a.08.08 0 0 0-.035.05 4.49 4.49 0 0 0-.313.348c0-.027.04-.05.043-.074l-7.28 6.66c.058.05.066.09.062.117Zm0 0"></path>
  <path style="stroke:none;fill-rule:nonzero;fill:url(#s)" d="M28.398 23.379c.09 1.601.23 3.394.403 5.379.004.101.015.207.035.308.164 1.735.375 3.602.648 5.637.23 1.758.489 3.602.801 5.602.258 1.73.578 3.543.906 5.468l7.282-6.668a11.974 11.974 0 0 0 1.828-6.59c0-.57-.043-1.171-.09-1.788A56.41 56.41 0 0 0 39.578 25a49.186 49.186 0 0 0-1.082-5.148 28.214 28.214 0 0 0-.836-2.614 32.462 32.462 0 0 0-.8-1.812 115.46 115.46 0 0 1-8.462 7.953Zm0 0"></path>
  <path style="stroke:none;fill-rule:nonzero;fill:#be202e;fill-opacity:1" d="M43.309 54.398c-.133.149-.282.278-.43.434a5.68 5.68 0 0 1 .43-.434Zm0 0"></path>
  <use xlink:href="#t" mask="url(#u)"></use>
  <path style="stroke:none;fill-rule:nonzero;fill:url(#v)" d="M43.309 54.398c-.133.149-.282.278-.43.434a5.68 5.68 0 0 1 .43-.434Zm0 0"></path>
  <path style="stroke:none;fill-rule:nonzero;fill:#be202e;fill-opacity:1" d="M41.602 49.438c.046-.04.082-.086.14-.133-.047.035-.082.082-.14.133Zm0 0"></path>
  <use xlink:href="#w" mask="url(#x)"></use>
  <path style="stroke:none;fill-rule:nonzero;fill:url(#y)" d="M41.602 49.438c.046-.04.082-.086.14-.133-.047.035-.082.082-.14.133Zm0 0"></path>
  <path style="stroke:none;fill-rule:nonzero;fill:url(#z)" d="M98.508 11.563a43.16 43.16 0 0 0-9.707 7.289l2.398 6.761a80.326 80.326 0 0 1 8.403-7.86c.203-.167.328-.265.328-.265-.106.098-.227.168-.328.266a71.75 71.75 0 0 0-8 8.05c4.375.325 8.765.423 13.152.29a13.78 13.78 0 0 0 .281-10.559s-2.445-5.656-6.527-3.973Zm0 0"></path>
  <path style="stroke:none;fill-rule:nonzero;fill:#be202e;fill-opacity:1" d="M79.602 62.586c-.45.023-.895.023-1.336.023h.687c.215.004.43-.004.649-.023Zm0 0"></path>
  <use xlink:href="#A" mask="url(#B)"></use>
  <path style="stroke:none;fill-rule:nonzero;fill:#be202e;fill-opacity:1" d="M81.535 57.258h.2c.288 0 .578 0 .85-.035-.339 0-.69 0-1.046.023Zm0 0"></path>
  <use xlink:href="#C" mask="url(#D)"></use>
  <path style="stroke:none;fill-rule:nonzero;fill:url(#E)" d="M79.004 40.363a318.718 318.718 0 0 1 3.871-5.086 138.623 138.623 0 0 1 4.055-4.949c.078-.101.164-.195.238-.277a135.156 135.156 0 0 1 4-4.465l-2.398-6.742c-.286.27-.59.535-.899.82a136.81 136.81 0 0 0-3.535 3.402 222.161 222.161 0 0 0-4.258 4.368 220.475 220.475 0 0 0-4.09 4.472 260.517 260.517 0 0 0-3.527 4.098l-.137.156 3.067 9.164c1.222-1.652 2.418-3.324 3.613-4.96Zm0 0"></path>
  <path style="stroke:none;fill-rule:nonzero;fill:url(#F)" d="M52.254 85.602c-.8 1.476-1.602 3-2.422 4.566 0 .02-.027.039-.031.059-.121.23-.242.433-.34.66-.555 1.05-1.023 2-2.137 4.144a8.72 8.72 0 0 1 2.692 4.32 7.08 7.08 0 0 0-1.551-5.128c6.23 1.203 11.89.402 15.344-3.778.3-.379.597-.777.882-1.203a6.088 6.088 0 0 1-6.129 1.274 17.043 17.043 0 0 0 9.504-5.715 35.594 35.594 0 0 0 1.727-2.235 13.818 13.818 0 0 1-13.531 2.297l-3.555-.125c-.152.305-.309.575-.453.864Zm0 0"></path>
  <path style="stroke:none;fill-rule:nonzero;fill:url(#G)" d="M55.031 78c1.047-1.844 2.117-3.703 3.2-5.602a296.203 296.203 0 0 1 3.203-5.406c1.097-1.808 2.195-3.625 3.3-5.437a282.35 282.35 0 0 1 3.47-5.5c1.175-1.825 2.347-3.598 3.515-5.383a86.9 86.9 0 0 1 1.3-1.914c.739-1.09 1.497-2.18 2.254-3.262.032-.059.082-.121.114-.184l-3.028-9.136a2.994 2.994 0 0 1-.265.316c-1.242 1.504-2.504 3.024-3.739 4.598-1.23 1.57-2.488 3.2-3.707 4.867a265.274 265.274 0 0 0-3.039 4.23c-.199.282-.402.586-.593.868-1.2 1.797-2.364 3.558-3.387 5.25a113.286 113.286 0 0 0-3.156 5.5 134.34 134.34 0 0 0-1.735 3.34c-.441.91-.867 1.843-1.289 2.757a85.328 85.328 0 0 0-2.644 6.535l3.082 9.2c.8-1.461 1.625-2.914 2.445-4.403.219-.394.469-.8.7-1.234Zm0 0"></path>
  <path style="stroke:none;fill-rule:nonzero;fill:url(#H)" d="M48.68 74.742a67.607 67.607 0 0 0-2.332 8.043c0 .086-.051.192-.063.278a17.542 17.542 0 0 0-4.344-5.004 24.348 24.348 0 0 1 3.22 11.894 11.167 11.167 0 0 1-5.356-1.742 11.088 11.088 0 0 0 4.27 3.531 13.604 13.604 0 0 0-6.985 2.301 13.928 13.928 0 0 1 7.933-.273c-4.222 7.957-8.543 16.808-12.964 26.23a2.598 2.598 0 0 0 2-1.457c.8-1.703 6.043-12.902 13.812-27.488.219-.399.453-.82.672-1.254l.184-.348c.824-1.52 1.671-3.082 2.55-4.68.207-.37.399-.722.602-1.09v-.019l-3.082-9.2c-.047.09-.086.184-.117.278Zm0 0"></path>
  <path style="stroke:none;fill-rule:nonzero;fill:url(#I)" d="M75.977 46.176c-.168.238-.313.465-.48.703-.485.73-.99 1.453-1.477 2.2a208.44 208.44 0 0 1-1.653 2.483c-.281.426-.566.848-.855 1.293-.86 1.317-1.723 2.676-2.617 4.075a347.967 347.967 0 0 0-3.34 5.383 502.867 502.867 0 0 0-3.317 5.523c-1.062 1.816-2.152 3.676-3.261 5.602-.985 1.718-1.977 3.5-3 5.324-.055.078-.094.183-.149.265a529.846 529.846 0 0 0-3.058 5.602.298.298 0 0 0-.067.125l3.555.121c-.063-.031-.13-.04-.215-.074a25.118 25.118 0 0 0 14.43-5.559 33.84 33.84 0 0 0 5.472-5.64 55.376 55.376 0 0 0 3.825-5.668 86.801 86.801 0 0 0 3.257-6.043c-1.113.37-2.27.59-3.441.648l-.676.035h-.687a15.28 15.28 0 0 0 9.304-6.75 14.342 14.342 0 0 1-4.992 1.375c-.27.028-.558.028-.847.031h-.22a15.9 15.9 0 0 0 3.778-1.437c.234-.121.465-.254.684-.402.343-.215.664-.453.984-.696.207-.168.402-.32.606-.488.472-.41.906-.855 1.304-1.34.137-.156.266-.293.375-.457.168-.238.332-.457.477-.683a40.85 40.85 0 0 0 1.758-2.735c.234-.398.445-.777.629-1.129.066-.144.148-.265.218-.398.192-.403.375-.746.508-1.059.16-.36.305-.73.426-1.11a2.336 2.336 0 0 1-.5.235 16.92 16.92 0 0 1-5.059.946l3.266.125-3.266-.125c-.023-.012-.047-.012-.066 0a5.675 5.675 0 0 0-.516 0c.028 0 .07 0 .094-.032l-11.16-.402c.02.074-.008.113-.031.133Zm0 0"></path>
  <path style="stroke:none;fill-rule:nonzero;fill:url(#J)" d="M91.602 25.809a161.424 161.424 0 0 0-3.946 4.656c-.082.086-.156.18-.219.277a178.511 178.511 0 0 0-3.957 5.055c-1.199 1.598-2.48 3.297-3.816 5.16-1.168 1.598-2.348 3.316-3.602 5.121l11.16.402a13.554 13.554 0 0 0 6.712-3.847 45.42 45.42 0 0 0 1.351-1.508A66.175 66.175 0 0 0 99.313 36a56.266 56.266 0 0 0 3.199-5.004 29.64 29.64 0 0 0 1.402-2.766c.309-.73.566-1.421.8-2.097-4.374.113-8.75.004-13.112-.324Zm0 0"></path>
  <path style="stroke:none;fill-rule:nonzero;fill:#be202e;fill-opacity:1" d="M78.953 62.621h-.687a6.56 6.56 0 0 1 .687 0Zm0 0"></path>
  <use xlink:href="#K" mask="url(#L)"></use>
  <path style="stroke:none;fill-rule:nonzero;fill:url(#M)" d="M78.953 62.621h-.687a6.56 6.56 0 0 1 .687 0Zm0 0"></path>
</symbol>
<symbol viewBox="0 0 24 24" fill="none" stroke="currentColor" stroke-width="2" stroke-linecap="round" stroke-linejoin="round" class="icon icon-tabler icons-tabler-outline icon-tabler-message-2" id="message-2"><path stroke="none" d="M0 0h24v24H0z" fill="none"></path><path d="M8 9h8" ></path><path d="M8 13h6" ></path><path d="M9 18h-3a3 3 0 0 1 -3 -3v-8a3 3 0 0 1 3 -3h12a3 3 0 0 1 3 3v8a3 3 0 0 1 -3 3h-3l-3 3l-3 -3z" ></path></symbol>
<symbol viewBox="0 0 128 128" id="mongodb"><path fill-rule="evenodd" clip-rule="evenodd" fill="#439934" d="M88.038 42.812c1.605 4.643 2.761 9.383 3.141 14.296.472 6.095.256 12.147-1.029 18.142-.035.165-.109.32-.164.48-.403.001-.814-.049-1.208.012-3.329.523-6.655 1.065-9.981 1.604-3.438.557-6.881 1.092-10.313 1.687-1.216.21-2.721-.041-3.212 1.641-.014.046-.154.054-.235.08l.166-10.051-.169-24.252 1.602-.275c2.62-.429 5.24-.864 7.862-1.281 3.129-.497 6.261-.98 9.392-1.465 1.381-.215 2.764-.412 4.148-.618z"></path><path fill-rule="evenodd" clip-rule="evenodd" fill="#45A538" d="M61.729 110.054c-1.69-1.453-3.439-2.842-5.059-4.37-8.717-8.222-15.093-17.899-18.233-29.566-.865-3.211-1.442-6.474-1.627-9.792-.13-2.322-.318-4.665-.154-6.975.437-6.144 1.325-12.229 3.127-18.147l.099-.138c.175.233.427.439.516.702 1.759 5.18 3.505 10.364 5.242 15.551 5.458 16.3 10.909 32.604 16.376 48.9.107.318.384.579.583.866l-.87 2.969z"></path><path fill-rule="evenodd" clip-rule="evenodd" fill="#46A037" d="M88.038 42.812c-1.384.206-2.768.403-4.149.616-3.131.485-6.263.968-9.392 1.465-2.622.417-5.242.852-7.862 1.281l-1.602.275-.012-1.045c-.053-.859-.144-1.717-.154-2.576-.069-5.478-.112-10.956-.18-16.434-.042-3.429-.105-6.857-.175-10.285-.043-2.13-.089-4.261-.185-6.388-.052-1.143-.236-2.28-.311-3.423-.042-.657.016-1.319.029-1.979.817 1.583 1.616 3.178 2.456 4.749 1.327 2.484 3.441 4.314 5.344 6.311 7.523 7.892 12.864 17.068 16.193 27.433z"></path><path fill-rule="evenodd" clip-rule="evenodd" fill="#409433" d="M65.036 80.753c.081-.026.222-.034.235-.08.491-1.682 1.996-1.431 3.212-1.641 3.432-.594 6.875-1.13 10.313-1.687 3.326-.539 6.652-1.081 9.981-1.604.394-.062.805-.011 1.208-.012-.622 2.22-1.112 4.488-1.901 6.647-.896 2.449-1.98 4.839-3.131 7.182a49.142 49.142 0 01-6.353 9.763c-1.919 2.308-4.058 4.441-6.202 6.548-1.185 1.165-2.582 2.114-3.882 3.161l-.337-.23-1.214-1.038-1.256-2.753a41.402 41.402 0 01-1.394-9.838l.023-.561.171-2.426c.057-.828.133-1.655.168-2.485.129-2.982.241-5.964.359-8.946z"></path><path fill-rule="evenodd" clip-rule="evenodd" fill="#4FAA41" d="M65.036 80.753c-.118 2.982-.23 5.964-.357 8.947-.035.83-.111 1.657-.168 2.485l-.765.289c-1.699-5.002-3.399-9.951-5.062-14.913-2.75-8.209-5.467-16.431-8.213-24.642a4498.887 4498.887 0 00-6.7-19.867c-.105-.31-.407-.552-.617-.826l4.896-9.002c.168.292.39.565.496.879a6167.476 6167.476 0 016.768 20.118c2.916 8.73 5.814 17.467 8.728 26.198.116.349.308.671.491 1.062l.67-.78-.167 10.052z"></path><path fill-rule="evenodd" clip-rule="evenodd" fill="#4AA73C" d="M43.155 32.227c.21.274.511.516.617.826a4498.887 4498.887 0 016.7 19.867c2.746 8.211 5.463 16.433 8.213 24.642 1.662 4.961 3.362 9.911 5.062 14.913l.765-.289-.171 2.426-.155.559c-.266 2.656-.49 5.318-.814 7.968-.163 1.328-.509 2.632-.772 3.947-.198-.287-.476-.548-.583-.866-5.467-16.297-10.918-32.6-16.376-48.9a3888.972 3888.972 0 00-5.242-15.551c-.089-.263-.34-.469-.516-.702l3.272-8.84z"></path><path fill-rule="evenodd" clip-rule="evenodd" fill="#57AE47" d="M65.202 70.702l-.67.78c-.183-.391-.375-.714-.491-1.062-2.913-8.731-5.812-17.468-8.728-26.198a6167.476 6167.476 0 00-6.768-20.118c-.105-.314-.327-.588-.496-.879l6.055-7.965c.191.255.463.482.562.769 1.681 4.921 3.347 9.848 5.003 14.778 1.547 4.604 3.071 9.215 4.636 13.813.105.308.47.526.714.786l.012 1.045c.058 8.082.115 16.167.171 24.251z"></path><path fill-rule="evenodd" clip-rule="evenodd" fill="#60B24F" d="M65.021 45.404c-.244-.26-.609-.478-.714-.786-1.565-4.598-3.089-9.209-4.636-13.813-1.656-4.93-3.322-9.856-5.003-14.778-.099-.287-.371-.514-.562-.769 1.969-1.928 3.877-3.925 5.925-5.764 1.821-1.634 3.285-3.386 3.352-5.968.003-.107.059-.214.145-.514l.519 1.306c-.013.661-.072 1.322-.029 1.979.075 1.143.259 2.28.311 3.423.096 2.127.142 4.258.185 6.388.069 3.428.132 6.856.175 10.285.067 5.478.111 10.956.18 16.434.008.861.098 1.718.152 2.577z"></path><path fill-rule="evenodd" clip-rule="evenodd" fill="#A9AA88" d="M62.598 107.085c.263-1.315.609-2.62.772-3.947.325-2.649.548-5.312.814-7.968l.066-.01.066.011a41.402 41.402 0 001.394 9.838c-.176.232-.425.439-.518.701-.727 2.05-1.412 4.116-2.143 6.166-.1.28-.378.498-.574.744l-.747-2.566.87-2.969z"></path><path fill-rule="evenodd" clip-rule="evenodd" fill="#B6B598" d="M62.476 112.621c.196-.246.475-.464.574-.744.731-2.05 1.417-4.115 2.143-6.166.093-.262.341-.469.518-.701l1.255 2.754c-.248.352-.59.669-.728 1.061l-2.404 7.059c-.099.283-.437.483-.663.722l-.695-3.985z"></path><path fill-rule="evenodd" clip-rule="evenodd" fill="#C2C1A7" d="M63.171 116.605c.227-.238.564-.439.663-.722l2.404-7.059c.137-.391.48-.709.728-1.061l1.215 1.037c-.587.58-.913 1.25-.717 2.097l-.369 1.208c-.168.207-.411.387-.494.624-.839 2.403-1.64 4.819-2.485 7.222-.107.305-.404.544-.614.812-.109-1.387-.22-2.771-.331-4.158z"></path><path fill-rule="evenodd" clip-rule="evenodd" fill="#CECDB7" d="M63.503 120.763c.209-.269.506-.508.614-.812.845-2.402 1.646-4.818 2.485-7.222.083-.236.325-.417.494-.624l-.509 5.545c-.136.157-.333.294-.398.477-.575 1.614-1.117 3.24-1.694 4.854-.119.333-.347.627-.525.938-.158-.207-.441-.407-.454-.623-.051-.841-.016-1.688-.013-2.533z"></path><path fill-rule="evenodd" clip-rule="evenodd" fill="#DBDAC7" d="M63.969 123.919c.178-.312.406-.606.525-.938.578-1.613 1.119-3.239 1.694-4.854.065-.183.263-.319.398-.477l.012 3.64-1.218 3.124-1.411-.495z"></path><path fill-rule="evenodd" clip-rule="evenodd" fill="#EBE9DC" d="M65.38 124.415l1.218-3.124.251 3.696-1.469-.572z"></path><path fill-rule="evenodd" clip-rule="evenodd" fill="#CECDB7" d="M67.464 110.898c-.196-.847.129-1.518.717-2.097l.337.23-1.054 1.867z"></path><path fill-rule="evenodd" clip-rule="evenodd" fill="#4FAA41" d="M64.316 95.172l-.066-.011-.066.01.155-.559-.023.56z"></path></symbol>
<symbol viewBox="0 0 128 128" id="mysql"><path fill="#00618A" d="M117.688 98.242c-6.973-.191-12.297.461-16.852 2.379-1.293.547-3.355.559-3.566 2.18.711.746.82 1.859 1.387 2.777 1.086 1.754 2.922 4.113 4.559 5.352 1.789 1.348 3.633 2.793 5.551 3.961 3.414 2.082 7.223 3.27 10.504 5.352 1.938 1.23 3.859 2.777 5.75 4.164.934.684 1.563 1.75 2.773 2.18v-.195c-.637-.812-.801-1.93-1.387-2.777l-2.578-2.578c-2.52-3.344-5.719-6.281-9.117-8.719-2.711-1.949-8.781-4.578-9.91-7.73l-.199-.199c1.922-.219 4.172-.914 5.949-1.391 2.98-.797 5.645-.59 8.719-1.387l4.164-1.187v-.793c-1.555-1.594-2.664-3.707-4.359-5.152-4.441-3.781-9.285-7.555-14.273-10.703-2.766-1.746-6.184-2.883-9.117-4.363-.988-.496-2.719-.758-3.371-1.586-1.539-1.961-2.379-4.449-3.566-6.738-2.488-4.793-4.93-10.023-7.137-15.066-1.504-3.437-2.484-6.828-4.359-9.91-9-14.797-18.687-23.73-33.695-32.508-3.195-1.867-7.039-2.605-11.102-3.57l-6.543-.395c-1.332-.555-2.715-2.184-3.965-2.977C16.977 3.52 4.223-3.312.539 5.672-1.785 11.34 4.016 16.871 6.09 19.746c1.457 2.012 3.32 4.273 4.359 6.539.688 1.492.805 2.984 1.391 4.559 1.438 3.883 2.695 8.109 4.559 11.695.941 1.816 1.98 3.727 3.172 5.352.727.996 1.98 1.438 2.18 2.973-1.227 1.715-1.297 4.375-1.984 6.543-3.098 9.77-1.926 21.91 2.578 29.137 1.383 2.223 4.641 6.98 9.117 5.156 3.918-1.598 3.043-6.539 4.164-10.902.254-.988.098-1.715.594-2.379v.199l3.57 7.133c2.641 4.254 7.324 8.699 11.297 11.699 2.059 1.555 3.68 4.242 6.344 5.152v-.199h-.199c-.516-.805-1.324-1.137-1.98-1.781-1.551-1.523-3.277-3.414-4.559-5.156-3.613-4.902-6.805-10.27-9.711-15.855-1.391-2.668-2.598-5.609-3.77-8.324-.453-1.047-.445-2.633-1.387-3.172-1.281 1.988-3.172 3.598-4.164 5.945-1.582 3.754-1.789 8.336-2.375 13.082-.348.125-.195.039-.398.199-2.762-.668-3.73-3.508-4.758-5.949-2.594-6.164-3.078-16.09-.793-23.191.59-1.836 3.262-7.617 2.18-9.316-.516-1.691-2.219-2.672-3.172-3.965-1.18-1.598-2.355-3.703-3.172-5.551-2.125-4.805-3.113-10.203-5.352-15.062-1.07-2.324-2.875-4.676-4.359-6.738-1.645-2.289-3.484-3.977-4.758-6.742-.453-.984-1.066-2.559-.398-3.566.215-.684.516-.969 1.191-1.191 1.148-.887 4.352.297 5.547.793 3.18 1.32 5.832 2.578 8.527 4.363 1.289.855 2.598 2.512 4.16 2.973h1.785c2.789.641 5.914.195 8.523.988 4.609 1.402 8.738 3.582 12.488 5.949 11.422 7.215 20.766 17.48 27.156 29.734 1.027 1.973 1.473 3.852 2.379 5.945 1.824 4.219 4.125 8.559 5.941 12.688 1.816 4.113 3.582 8.27 6.148 11.695 1.348 1.801 6.551 2.766 8.918 3.766 1.66.699 4.379 1.43 5.949 2.379 3 1.809 5.906 3.965 8.723 5.945 1.402.992 5.73 3.168 5.945 4.957zm-88.605-75.52c-1.453-.027-2.48.156-3.566.395v.199h.195c.695 1.422 1.918 2.34 2.777 3.566l1.98 4.164.199-.195c1.227-.867 1.789-2.25 1.781-4.363-.492-.52-.562-1.164-.992-1.785-.562-.824-1.66-1.289-2.375-1.98zm0 0"></path></symbol>
<symbol role="img" viewBox="0 0 24 24" id="nodedotjs">
  <title>Node.js</title>
  <path   fill="#5FA04E"
    d="M11.998,24c-0.321,0-0.641-0.084-0.922-0.247l-2.936-1.737c-0.438-0.245-0.224-0.332-0.08-0.383 c0.585-0.203,0.703-0.25,1.328-0.604c0.065-0.037,0.151-0.023,0.218,0.017l2.256,1.339c0.082,0.045,0.197,0.045,0.272,0l8.795-5.076 c0.082-0.047,0.134-0.141,0.134-0.238V6.921c0-0.099-0.053-0.192-0.137-0.242l-8.791-5.072c-0.081-0.047-0.189-0.047-0.271,0 L3.075,6.68C2.99,6.729,2.936,6.825,2.936,6.921v10.15c0,0.097,0.054,0.189,0.139,0.235l2.409,1.392 c1.307,0.654,2.108-0.116,2.108-0.89V7.787c0-0.142,0.114-0.253,0.256-0.253h1.115c0.139,0,0.255,0.112,0.255,0.253v10.021 c0,1.745-0.95,2.745-2.604,2.745c-0.508,0-0.909,0-2.026-0.551L2.28,18.675c-0.57-0.329-0.922-0.945-0.922-1.604V6.921 c0-0.659,0.353-1.275,0.922-1.603l8.795-5.082c0.557-0.315,1.296-0.315,1.848,0l8.794,5.082c0.57,0.329,0.924,0.944,0.924,1.603 v10.15c0,0.659-0.354,1.273-0.924,1.604l-8.794,5.078C12.643,23.916,12.324,24,11.998,24z M19.099,13.993 c0-1.9-1.284-2.406-3.987-2.763c-2.731-0.361-3.009-0.548-3.009-1.187c0-0.528,0.235-1.233,2.258-1.233 c1.807,0,2.473,0.389,2.747,1.607c0.024,0.115,0.129,0.199,0.247,0.199h1.141c0.071,0,0.138-0.031,0.186-0.081 c0.048-0.054,0.074-0.123,0.067-0.196c-0.177-2.098-1.571-3.076-4.388-3.076c-2.508,0-4.004,1.058-4.004,2.833 c0,1.925,1.488,2.457,3.895,2.695c2.88,0.282,3.103,0.703,3.103,1.269c0,0.983-0.789,1.402-2.642,1.402 c-2.327,0-2.839-0.584-3.011-1.742c-0.02-0.124-0.126-0.215-0.253-0.215h-1.137c-0.141,0-0.254,0.112-0.254,0.253 c0,1.482,0.806,3.248,4.655,3.248C17.501,17.007,19.099,15.91,19.099,13.993z" ></path>
</symbol>
<symbol viewBox="0 0 128 128" id="npm"><path fill="#cb3837" d="M2 38.5h124v43.71H64v7.29H36.44v-7.29H2zm6.89 36.43h13.78V53.07h6.89v21.86h6.89V45.79H8.89zm34.44-29.14v36.42h13.78v-7.28h13.78V45.79zm13.78 7.29H64v14.56h-6.89zm20.67-7.29v29.14h13.78V53.07h6.89v21.86h6.89V53.07h6.89v21.86h6.89V45.79z"></path></symbol>
<symbol viewBox="0 0 128 128" id="postgresql"><path d="M93.809 92.112c.785-6.533.55-7.492 5.416-6.433l1.235.108c3.742.17 8.637-.602 11.513-1.938 6.191-2.873 9.861-7.668 3.758-6.409-13.924 2.873-14.881-1.842-14.881-1.842 14.703-21.815 20.849-49.508 15.543-56.287-14.47-18.489-39.517-9.746-39.936-9.52l-.134.025c-2.751-.571-5.83-.912-9.289-.968-6.301-.104-11.082 1.652-14.709 4.402 0 0-44.683-18.409-42.604 23.151.442 8.841 12.672 66.898 27.26 49.362 5.332-6.412 10.484-11.834 10.484-11.834 2.558 1.699 5.622 2.567 8.834 2.255l.249-.212c-.078.796-.044 1.575.099 2.497-3.757 4.199-2.653 4.936-10.166 6.482-7.602 1.566-3.136 4.355-.221 5.084 3.535.884 11.712 2.136 17.238-5.598l-.22.882c1.474 1.18 1.375 8.477 1.583 13.69.209 5.214.558 10.079 1.621 12.948 1.063 2.868 2.317 10.256 12.191 8.14 8.252-1.764 14.561-4.309 15.136-27.985"></path><path d="M75.458 125.256c-4.367 0-7.211-1.689-8.938-3.32-2.607-2.46-3.641-5.629-4.259-7.522l-.267-.79c-1.244-3.358-1.666-8.193-1.916-14.419-.038-.935-.064-1.898-.093-2.919-.021-.747-.047-1.684-.085-2.664a18.8 18.8 0 01-4.962 1.568c-3.079.526-6.389.356-9.84-.507-2.435-.609-4.965-1.871-6.407-3.82-4.203 3.681-8.212 3.182-10.396 2.453-3.853-1.285-7.301-4.896-10.542-11.037-2.309-4.375-4.542-10.075-6.638-16.943-3.65-11.96-5.969-24.557-6.175-28.693C4.292 23.698 7.777 14.44 15.296 9.129 27.157.751 45.128 5.678 51.68 7.915c4.402-2.653 9.581-3.944 15.433-3.851 3.143.051 6.136.327 8.916.823 2.9-.912 8.628-2.221 15.185-2.139 12.081.144 22.092 4.852 28.949 13.615 4.894 6.252 2.474 19.381.597 26.651-2.642 10.226-7.271 21.102-12.957 30.57 1.544.011 3.781-.174 6.961-.831 6.274-1.295 8.109 2.069 8.607 3.575 1.995 6.042-6.677 10.608-9.382 11.864-3.466 1.609-9.117 2.589-13.745 2.377l-.202-.013-1.216-.107-.12 1.014-.116.991c-.311 11.999-2.025 19.598-5.552 24.619-3.697 5.264-8.835 6.739-13.361 7.709-1.544.33-2.947.474-4.219.474zm-9.19-43.671c2.819 2.256 3.066 6.501 3.287 14.434.028.99.054 1.927.089 2.802.106 2.65.355 8.855 1.327 11.477.137.371.26.747.39 1.146 1.083 3.316 1.626 4.979 6.309 3.978 3.931-.843 5.952-1.599 7.534-3.851 2.299-3.274 3.585-9.86 3.821-19.575l4.783.116-4.75-.57.14-1.186c.455-3.91.783-6.734 3.396-8.602 2.097-1.498 4.486-1.353 6.389-1.01-2.091-1.58-2.669-3.433-2.823-4.193l-.399-1.965 1.121-1.663c6.457-9.58 11.781-21.354 14.609-32.304 2.906-11.251 2.02-17.226 1.134-18.356-11.729-14.987-32.068-8.799-34.192-8.097l-.359.194-1.8.335-.922-.191c-2.542-.528-5.366-.82-8.393-.869-4.756-.08-8.593 1.044-11.739 3.431l-2.183 1.655-2.533-1.043c-5.412-2.213-21.308-6.662-29.696-.721-4.656 3.298-6.777 9.76-6.305 19.207.156 3.119 2.275 14.926 5.771 26.377 4.831 15.825 9.221 21.082 11.054 21.693.32.108 1.15-.537 1.976-1.529a270.708 270.708 0 0110.694-12.07l2.77-2.915 3.349 2.225c1.35.897 2.839 1.406 4.368 1.502l7.987-6.812-1.157 11.808c-.026.265-.039.626.065 1.296l.348 2.238-1.51 1.688-.174.196 4.388 2.025 1.836-2.301z"></path><path fill="#336791" d="M115.731 77.44c-13.925 2.873-14.882-1.842-14.882-1.842 14.703-21.816 20.849-49.51 15.545-56.287C101.924.823 76.875 9.566 76.457 9.793l-.135.024c-2.751-.571-5.83-.911-9.291-.967-6.301-.103-11.08 1.652-14.707 4.402 0 0-44.684-18.408-42.606 23.151.442 8.842 12.672 66.899 27.26 49.363 5.332-6.412 10.483-11.834 10.483-11.834 2.559 1.699 5.622 2.567 8.833 2.255l.25-.212c-.078.796-.042 1.575.1 2.497-3.758 4.199-2.654 4.936-10.167 6.482-7.602 1.566-3.136 4.355-.22 5.084 3.534.884 11.712 2.136 17.237-5.598l-.221.882c1.473 1.18 2.507 7.672 2.334 13.557-.174 5.885-.29 9.926.871 13.082 1.16 3.156 2.316 10.256 12.192 8.14 8.252-1.768 12.528-6.351 13.124-13.995.422-5.435 1.377-4.631 1.438-9.49l.767-2.3c.884-7.367.14-9.743 5.225-8.638l1.235.108c3.742.17 8.639-.602 11.514-1.938 6.19-2.871 9.861-7.667 3.758-6.408z"></path><path fill="#fff" d="M75.957 122.307c-8.232 0-10.84-6.519-11.907-9.185-1.562-3.907-1.899-19.069-1.551-31.503a1.59 1.59 0 011.64-1.55 1.594 1.594 0 011.55 1.639c-.401 14.341.168 27.337 1.324 30.229 1.804 4.509 4.54 8.453 12.275 6.796 7.343-1.575 10.093-4.359 11.318-11.46.94-5.449 2.799-20.951 3.028-24.01a1.593 1.593 0 011.71-1.472 1.597 1.597 0 011.472 1.71c-.239 3.185-2.089 18.657-3.065 24.315-1.446 8.387-5.185 12.191-13.794 14.037-1.463.313-2.792.453-4 .454zM31.321 90.466a6.71 6.71 0 01-2.116-.35c-5.347-1.784-10.44-10.492-15.138-25.885-3.576-11.717-5.842-23.947-6.041-27.922-.589-11.784 2.445-20.121 9.02-24.778 13.007-9.216 34.888-.44 35.813-.062a1.596 1.596 0 01-1.207 2.955c-.211-.086-21.193-8.492-32.768-.285-5.622 3.986-8.203 11.392-7.672 22.011.167 3.349 2.284 15.285 5.906 27.149 4.194 13.742 8.967 22.413 13.096 23.79.648.216 2.62.873 5.439-2.517A245.272 245.272 0 0145.88 73.046a1.596 1.596 0 012.304 2.208c-.048.05-4.847 5.067-10.077 11.359-2.477 2.979-4.851 3.853-6.786 3.853zm69.429-13.445a1.596 1.596 0 01-1.322-2.487c14.863-22.055 20.08-48.704 15.612-54.414-5.624-7.186-13.565-10.939-23.604-11.156-7.433-.16-13.341 1.738-14.307 2.069l-.243.099c-.971.305-1.716-.227-1.997-.849a1.6 1.6 0 01.631-2.025c.046-.027.192-.089.429-.176l-.021.006.021-.007c1.641-.601 7.639-2.4 15.068-2.315 11.108.118 20.284 4.401 26.534 12.388 2.957 3.779 2.964 12.485.019 23.887-3.002 11.625-8.651 24.118-15.497 34.277-.306.457-.81.703-1.323.703zm.76 10.21c-2.538 0-4.813-.358-6.175-1.174-1.4-.839-1.667-1.979-1.702-2.584-.382-6.71 3.32-7.878 5.208-8.411-.263-.398-.637-.866-1.024-1.349-1.101-1.376-2.609-3.26-3.771-6.078-.182-.44-.752-1.463-1.412-2.648-3.579-6.418-11.026-19.773-6.242-26.612 2.214-3.165 6.623-4.411 13.119-3.716C97.6 28.837 88.5 10.625 66.907 10.271c-6.494-.108-11.82 1.889-15.822 5.93-8.96 9.049-8.636 25.422-8.631 25.586a1.595 1.595 0 11-3.19.084c-.02-.727-.354-17.909 9.554-27.916C53.455 9.272 59.559 6.96 66.96 7.081c13.814.227 22.706 7.25 27.732 13.101 5.479 6.377 8.165 13.411 8.386 15.759.165 1.746-1.088 2.095-1.341 2.147l-.576.013c-6.375-1.021-10.465-.312-12.156 2.104-3.639 5.201 3.406 17.834 6.414 23.229.768 1.376 1.322 2.371 1.576 2.985.988 2.396 2.277 4.006 3.312 5.3.911 1.138 1.7 2.125 1.982 3.283.131.23 1.99 2.98 13.021.703 2.765-.57 4.423-.083 4.93 1.45.997 3.015-4.597 6.532-7.694 7.97-2.775 1.29-7.204 2.106-11.036 2.106zm-4.696-4.021c.35.353 2.101.962 5.727.806 3.224-.138 6.624-.839 8.664-1.786 2.609-1.212 4.351-2.567 5.253-3.492l-.5.092c-7.053 1.456-12.042 1.262-14.828-.577a6.162 6.162 0 01-.54-.401c-.302.119-.581.197-.78.253-1.58.443-3.214.902-2.996 5.105zm-45.562 8.915c-1.752 0-3.596-.239-5.479-.71-1.951-.488-5.24-1.957-5.19-4.37.057-2.707 3.994-3.519 5.476-3.824 5.354-1.103 5.703-1.545 7.376-3.67.488-.619 1.095-1.39 1.923-2.314 1.229-1.376 2.572-2.073 3.992-2.073.989 0 1.8.335 2.336.558 1.708.708 3.133 2.42 3.719 4.467.529 1.847.276 3.625-.71 5.006-3.237 4.533-7.886 6.93-13.443 6.93zm-7.222-4.943c.481.372 1.445.869 2.518 1.137 1.631.408 3.213.615 4.705.615 4.546 0 8.196-1.882 10.847-5.594.553-.774.387-1.757.239-2.274-.31-1.083-1.08-2.068-1.873-2.397-.43-.178-.787-.314-1.115-.314-.176 0-.712 0-1.614 1.009a41.146 41.146 0 00-1.794 2.162c-2.084 2.646-3.039 3.544-9.239 4.821-1.513.31-2.289.626-2.674.835zm12.269-7.36a1.596 1.596 0 01-1.575-1.354 8.218 8.218 0 01-.08-.799c-4.064-.076-7.985-1.82-10.962-4.926-3.764-3.927-5.477-9.368-4.699-14.927.845-6.037.529-11.366.359-14.229-.047-.796-.081-1.371-.079-1.769.003-.505.013-1.844 4.489-4.113 1.592-.807 4.784-2.215 8.271-2.576 5.777-.597 9.585 1.976 10.725 7.246 3.077 14.228.244 20.521-1.825 25.117-.385.856-.749 1.664-1.04 2.447l-.257.69c-1.093 2.931-2.038 5.463-1.748 7.354a1.595 1.595 0 01-1.335 1.819l-.244.02zM42.464 42.26l.062 1.139c.176 2.974.504 8.508-.384 14.86-.641 4.585.759 9.06 3.843 12.276 2.437 2.542 5.644 3.945 8.94 3.945h.068c.369-1.555.982-3.197 1.642-4.966l.255-.686c.329-.884.714-1.74 1.122-2.646 1.991-4.424 4.47-9.931 1.615-23.132-.565-2.615-1.936-4.128-4.189-4.627-4.628-1.022-11.525 2.459-12.974 3.837zm9.63-.677c-.08.564 1.033 2.07 2.485 2.271 1.449.203 2.689-.975 2.768-1.539.079-.564-1.033-1.186-2.485-1.388-1.451-.202-2.691.092-2.768.656zm2.818 2.826l-.407-.028c-.9-.125-1.81-.692-2.433-1.518-.219-.29-.576-.852-.505-1.354.101-.736.999-1.177 2.4-1.177.313 0 .639.023.967.069.766.106 1.477.327 2.002.62.91.508.977 1.075.936 1.368-.112.813-1.405 2.02-2.96 2.02zm-2.289-2.732c.045.348.907 1.496 2.029 1.651l.261.018c1.036 0 1.81-.815 1.901-1.082-.096-.182-.762-.634-2.025-.81a5.823 5.823 0 00-.821-.059c-.812 0-1.243.183-1.345.282zm43.605-1.245c.079.564-1.033 2.07-2.484 2.272-1.45.202-2.691-.975-2.771-1.539-.076-.564 1.036-1.187 2.486-1.388 1.45-.203 2.689.092 2.769.655zm-2.819 2.56c-1.396 0-2.601-1.086-2.7-1.791-.115-.846 1.278-1.489 2.712-1.688.316-.044.629-.066.93-.066 1.238 0 2.058.363 2.14.949.053.379-.238.964-.739 1.492-.331.347-1.026.948-1.973 1.079l-.37.025zm.943-3.013c-.276 0-.564.021-.856.061-1.441.201-2.301.779-2.259 1.089.048.341.968 1.332 2.173 1.332l.297-.021c.787-.109 1.378-.623 1.66-.919.443-.465.619-.903.598-1.052-.028-.198-.56-.49-1.613-.49zm3.965 32.843a1.594 1.594 0 01-1.324-2.483c3.398-5.075 2.776-10.25 2.175-15.255-.257-2.132-.521-4.337-.453-6.453.07-2.177.347-3.973.614-5.71.317-2.058.617-4.002.493-6.31a1.595 1.595 0 113.186-.172c.142 2.638-.197 4.838-.525 6.967-.253 1.643-.515 3.342-.578 5.327-.061 1.874.178 3.864.431 5.97.64 5.322 1.365 11.354-2.691 17.411a1.596 1.596 0 01-1.328.708z"></path></symbol>
<symbol viewBox="0 0 128 128" id="postman">
    <path fill="#f37036" d="M113.117 26.066C92.168-1.062 53.191-6.07 26.062 14.883c-27.125 20.953-32.128 59.93-11.175 87.055 20.957 27.124 59.937 32.124 87.058 11.167 27.114-20.953 32.118-59.918 11.172-87.039Zm0 0"></path>
    <path fill="#fff" d="M91.078 24.164a10.038 10.038 0 0 0-5.781 2.426 10.028 10.028 0 0 0-1.54 13.465 10.028 10.028 0 0 0 13.276 2.715h.002v.001l.156.155a10.63 10.63 0 0 0 1.965-1.45A10.341 10.341 0 0 0 99 27.107v-.002l-8.844 8.789-.156-.155 8.844-8.793a10.038 10.038 0 0 0-7.766-2.78zM79.434 38.551c-4.24-.007-11.163 4.799-28.067 21.703l.084.086c-.092-.032-.185-.035-.185-.035l-6.364 6.308a1.035 1.035 0 0 0 .93 1.762l10.914-2.328a.307.307 0 0 0 .092-.17l.242.25-3.72 3.69h-.18l-22.086 22.26 7.086 6.824a1.254 1.254 0 0 0 1.476.149 1.327 1.327 0 0 0 .645-1.356l-1.035-4.5a.534.534 0 0 1 0-.62 117.285 117.285 0 0 0 26.738-17.583l-4.535-4.537.086-.014-2.69-2.689.172-.174.182.186-.094.091 7.137 7.293v-.003c13.68-12.954 23.39-23.367 20.865-30.375a3.83 3.83 0 0 0-1.107-2.208v.004a3.778 3.778 0 0 0-.483-.306c-.083-.088-.156-.178-.244-.264l-.066.066a3.778 3.778 0 0 0-.582-.29l.289-.292c-1.796-1.6-3.28-2.924-5.5-2.93zM30.94 92.21l-5.171 5.172v.004a1.03 1.03 0 0 0-.457 1.125 1.035 1.035 0 0 0 .921.789l12.672.875-7.965-7.965z"></path>
    <path fill="#f37036" d="M91.95 23.31a11.047 11.047 0 0 0-7.759 3.17 10.988 10.988 0 0 0-2.39 11.641c-4.741-2.03-11.155 1.51-31.106 21.457a.932.932 0 0 0-.037.094 1.242 1.242 0 0 0-.119.062l-6.309 6.364a1.97 1.97 0 0 0-.363 2.324 2.012 2.012 0 0 0 1.707.984l.313-.203 8.424-1.797-4.03 4.067a.873.873 0 0 0-.054.166l-19.75 19.799a.798.798 0 0 0-.192.238l-5.086 5.09a1.967 1.967 0 0 0-.414 2.043 1.995 1.995 0 0 0 1.656 1.265l12.618.88a1.01 1.01 0 0 0 .52-.415.886.886 0 0 0 0-1.035l-.026-.025a2.243 2.243 0 0 0 .705-.58 2.237 2.237 0 0 0 .406-1.876l-.984-4.187a126.725 126.725 0 0 0 26.334-16.861 1.091 1.091 0 0 0 .248.103c.254-.019.492-.128.672-.308 13.55-12.83 21.515-21.622 21.515-28.602a8.03 8.03 0 0 0-.431-2.85 10.957 10.957 0 0 0 3.845.83l-.015.004a11.219 11.219 0 0 0 5.183-1.45.775.775 0 0 0 .004.001.835.835 0 0 0 .617-.055 9.398 9.398 0 0 0 2.07-1.652 10.873 10.873 0 0 0 3.258-7.758 10.873 10.873 0 0 0-3.257-7.758.93.93 0 0 0-.118-.091 11.045 11.045 0 0 0-7.656-3.078zm-.087 1.772a9.27 9.27 0 0 1 5.586 1.914l-8.068 8.117a.84.84 0 0 0-.076.098.83.83 0 0 0-.239.55.832.832 0 0 0 .313.65h.002l6.1 6.1a9.044 9.044 0 0 1-10.028-1.913c-2.586-2.6-3.336-6.504-1.953-9.891 1.383-3.39 4.68-5.605 8.363-5.625zm7.12 3.432a8.87 8.87 0 0 1 2.033 5.674 9.15 9.15 0 0 1-2.688 6.464 9.989 9.989 0 0 1-1.098.895L92.307 36.7l-.963-.963.265-.265 7.373-6.96zm-.366 4.193a.777.777 0 0 0-.55.031.731.731 0 0 0-.36.426.73.73 0 0 0 .05.559 2.226 2.226 0 0 1-.257 2.328.64.64 0 0 0-.195.488c.004.184.07.36.195.492a.58.58 0 0 0 .414 0 .68.68 0 0 0 .672-.207 3.573 3.573 0 0 0 .465-3.777v.004a.777.777 0 0 0-.434-.344zM79.34 39.43a5.584 5.584 0 0 1 3.31 1.226 4.756 4.756 0 0 0-2.681 1.34L57.162 64.701l-4.476-4.476c11.828-11.772 19.06-17.921 23.556-19.936a5.584 5.584 0 0 1 3.098-.86zm3.965 2.96a2.895 2.895 0 0 1 2.043.844 2.786 2.786 0 0 1 .879 2.121 2.869 2.869 0 0 1-.985 2.07l-24.25 21.106-2.617-2.617 22.887-22.68a2.895 2.895 0 0 1 2.043-.843zm2.994 6.698c-1.69 6.702-10.647 15.783-19.987 24.607l-3.777-3.773L86.3 49.088zM51.367 61.547l.274.27 3.513 3.513-9.63 2.06 5.843-5.843zm5.793 5.84.004.004 1.168 1.195a1.086 1.086 0 0 0 .018.084l.078.012.248.254.82.84-5.385.66 3.05-3.05zm3.867 4.076 3.578 3.576A126.992 126.992 0 0 1 38.75 91.695a1.44 1.44 0 0 0-.777 1.653l1.035 4.5a.31.31 0 0 1 0 .363.31.31 0 0 1-.414 0l-6.102-6.152L51.3 72.975l9.728-1.512zm-29.933 21.94.869.814 4.492 4.492-10.016-.648 4.655-4.659z"></path>
</symbol>
<symbol viewBox="0 0 128 128" id="prisma"><path fill="#2d3748" d="M66.457.014a6.308 6.308 0 0 0-5.812 3.028l-47.87 78.072a6.379 6.379 0 0 0 .048 6.748l23.568 37.186a6.387 6.387 0 0 0 7.22 2.683l68.012-20.407a6.37 6.37 0 0 0 3.96-8.765l-43.72-94.85A6.298 6.298 0 0 0 66.46.014Zm1.795 23.95a2.348 2.348 0 0 1 2.448 1.433l30.16 69.784a2.39 2.39 0 0 1-1.512 3.241l-46.996 14.024a2.39 2.39 0 0 1-3.024-2.76l16.83-83.812a2.353 2.353 0 0 1 2.099-1.91z"></path></symbol>
<symbol viewBox="0 0 128 128" id="react"><g fill="#61DAFB"><circle cx="64" cy="64" r="11.4"></circle><path d="M107.3 45.2c-2.2-.8-4.5-1.6-6.9-2.3.6-2.4 1.1-4.8 1.5-7.1 2.1-13.2-.2-22.5-6.6-26.1-1.9-1.1-4-1.6-6.4-1.6-7 0-15.9 5.2-24.9 13.9-9-8.7-17.9-13.9-24.9-13.9-2.4 0-4.5.5-6.4 1.6-6.4 3.7-8.7 13-6.6 26.1.4 2.3.9 4.7 1.5 7.1-2.4.7-4.7 1.4-6.9 2.3C8.2 50 1.4 56.6 1.4 64s6.9 14 19.3 18.8c2.2.8 4.5 1.6 6.9 2.3-.6 2.4-1.1 4.8-1.5 7.1-2.1 13.2.2 22.5 6.6 26.1 1.9 1.1 4 1.6 6.4 1.6 7.1 0 16-5.2 24.9-13.9 9 8.7 17.9 13.9 24.9 13.9 2.4 0 4.5-.5 6.4-1.6 6.4-3.7 8.7-13 6.6-26.1-.4-2.3-.9-4.7-1.5-7.1 2.4-.7 4.7-1.4 6.9-2.3 12.5-4.8 19.3-11.4 19.3-18.8s-6.8-14-19.3-18.8zM92.5 14.7c4.1 2.4 5.5 9.8 3.8 20.3-.3 2.1-.8 4.3-1.4 6.6-5.2-1.2-10.7-2-16.5-2.5-3.4-4.8-6.9-9.1-10.4-13 7.4-7.3 14.9-12.3 21-12.3 1.3 0 2.5.3 3.5.9zM81.3 74c-1.8 3.2-3.9 6.4-6.1 9.6-3.7.3-7.4.4-11.2.4-3.9 0-7.6-.1-11.2-.4-2.2-3.2-4.2-6.4-6-9.6-1.9-3.3-3.7-6.7-5.3-10 1.6-3.3 3.4-6.7 5.3-10 1.8-3.2 3.9-6.4 6.1-9.6 3.7-.3 7.4-.4 11.2-.4 3.9 0 7.6.1 11.2.4 2.2 3.2 4.2 6.4 6 9.6 1.9 3.3 3.7 6.7 5.3 10-1.7 3.3-3.4 6.6-5.3 10zm8.3-3.3c1.5 3.5 2.7 6.9 3.8 10.3-3.4.8-7 1.4-10.8 1.9 1.2-1.9 2.5-3.9 3.6-6 1.2-2.1 2.3-4.2 3.4-6.2zM64 97.8c-2.4-2.6-4.7-5.4-6.9-8.3 2.3.1 4.6.2 6.9.2 2.3 0 4.6-.1 6.9-.2-2.2 2.9-4.5 5.7-6.9 8.3zm-18.6-15c-3.8-.5-7.4-1.1-10.8-1.9 1.1-3.3 2.3-6.8 3.8-10.3 1.1 2 2.2 4.1 3.4 6.1 1.2 2.2 2.4 4.1 3.6 6.1zm-7-25.5c-1.5-3.5-2.7-6.9-3.8-10.3 3.4-.8 7-1.4 10.8-1.9-1.2 1.9-2.5 3.9-3.6 6-1.2 2.1-2.3 4.2-3.4 6.2zM64 30.2c2.4 2.6 4.7 5.4 6.9 8.3-2.3-.1-4.6-.2-6.9-.2-2.3 0-4.6.1-6.9.2 2.2-2.9 4.5-5.7 6.9-8.3zm22.2 21l-3.6-6c3.8.5 7.4 1.1 10.8 1.9-1.1 3.3-2.3 6.8-3.8 10.3-1.1-2.1-2.2-4.2-3.4-6.2zM31.7 35c-1.7-10.5-.3-17.9 3.8-20.3 1-.6 2.2-.9 3.5-.9 6 0 13.5 4.9 21 12.3-3.5 3.8-7 8.2-10.4 13-5.8.5-11.3 1.4-16.5 2.5-.6-2.3-1-4.5-1.4-6.6zM7 64c0-4.7 5.7-9.7 15.7-13.4 2-.8 4.2-1.5 6.4-2.1 1.6 5 3.6 10.3 6 15.6-2.4 5.3-4.5 10.5-6 15.5C15.3 75.6 7 69.6 7 64zm28.5 49.3c-4.1-2.4-5.5-9.8-3.8-20.3.3-2.1.8-4.3 1.4-6.6 5.2 1.2 10.7 2 16.5 2.5 3.4 4.8 6.9 9.1 10.4 13-7.4 7.3-14.9 12.3-21 12.3-1.3 0-2.5-.3-3.5-.9zM96.3 93c1.7 10.5.3 17.9-3.8 20.3-1 .6-2.2.9-3.5.9-6 0-13.5-4.9-21-12.3 3.5-3.8 7-8.2 10.4-13 5.8-.5 11.3-1.4 16.5-2.5.6 2.3 1 4.5 1.4 6.6zm9-15.6c-2 .8-4.2 1.5-6.4 2.1-1.6-5-3.6-10.3-6-15.6 2.4-5.3 4.5-10.5 6-15.5 13.8 4 22.1 10 22.1 15.6 0 4.7-5.8 9.7-15.7 13.4z"></path></g></symbol>
<symbol fill="currentColor" role="img" viewBox="0 0 24 24" id="remix">
  <title>Remix</title>
  <path     d="M21.511 18.508c.216 2.773.216 4.073.216 5.492H15.31c0-.309.006-.592.011-.878.018-.892.036-1.821-.109-3.698-.19-2.747-1.374-3.358-3.55-3.358H1.574v-5h10.396c2.748 0 4.122-.835 4.122-3.049 0-1.946-1.374-3.125-4.122-3.125H1.573V0h11.541c6.221 0 9.313 2.938 9.313 7.632 0 3.511-2.176 5.8-5.114 6.182 2.48.497 3.93 1.909 4.198 4.694ZM1.573 24v-3.727h6.784c1.133 0 1.379.84 1.379 1.342V24Z" ></path>
</symbol>
<symbol viewBox="0 0 256 256" class="h-6 w-6" id="shadcn"><rect width="256" height="256" fill="none"></rect><line x1="208" y1="128" x2="128" y2="208" fill="none" stroke="currentColor" stroke-linecap="round" stroke-linejoin="round" stroke-width="16"></line><line x1="192" y1="40" x2="40" y2="192" fill="none" stroke="currentColor" stroke-linecap="round" stroke-linejoin="round" stroke-width="16"></line></symbol>
<symbol viewBox="0 0 128 128" id="spring"><path d="M116.452 6.643a59.104 59.104 0 01-6.837 12.136A64.249 64.249 0 0064.205-.026C28.984-.026 0 28.982 0 64.242a64.316 64.316 0 0019.945 46.562l2.368 2.1a64.22 64.22 0 0041.358 15.122c33.487 0 61.637-26.24 64.021-59.683 1.751-16.371-3.051-37.077-11.24-61.7zM29.067 111.17a5.5 5.5 0 01-4.269 2.034c-3.018 0-5.487-2.484-5.487-5.502 0-3.017 2.485-5.501 5.487-5.501 1.25 0 2.485.433 3.452 1.234 2.351 1.9 2.718 5.384.817 7.735zm87.119-19.238c-15.843 21.122-49.68 14.003-71.376 15.02 0 0-3.852.234-7.721.867 0 0 1.45-.617 3.335-1.334 15.226-5.301 22.43-6.335 31.685-11.086 17.427-8.869 34.654-28.274 38.24-48.463-6.637 19.422-26.75 36.11-45.077 42.895-12.557 4.635-35.238 9.136-35.238 9.136l-.917-.484c-15.442-7.518-15.91-40.977 12.157-51.78 12.291-4.735 24.048-2.134 37.323-5.302 14.175-3.367 30.568-14.004 37.238-27.874 7.471 22.19 16.46 56.932.35 78.405z" fill="#77bc1f"></path></symbol>
<symbol role="img" viewBox="0 0 24 24" id="springboot">
  <title>Spring Boot</title>
  <path fill="#6DB33F"
    d="m23.693 10.7058-4.73-8.1844c-.4094-.7106-1.4166-1.2942-2.2402-1.2942H7.2725c-.819 0-1.8308.5836-2.2402 1.2942L.307 10.7058c-.4095.7106-.4095 1.873 0 2.5837l4.7252 8.189c.4094.7107 1.4166 1.2943 2.2402 1.2943h9.455c.819 0 1.826-.5836 2.2402-1.2942l4.7252-8.189c.4095-.7107.4095-1.8732 0-2.5838zM10.9763 5.7547c0-.5365.4377-.9742.9742-.9742s.9742.4377.9742.9742v5.8217c0 .5366-.4377.9742-.9742.9742s-.9742-.4376-.9742-.9742zm.9742 12.4294c-3.6427 0-6.6077-2.965-6.6077-6.6077.0047-2.0896.993-4.0521 2.6685-5.304a.8657.8657 0 0 1 1.2142.1788.8657.8657 0 0 1-.1788 1.2143c-2.1602 1.6048-2.612 4.6592-1.0072 6.8194 1.6049 2.1603 4.6593 2.612 6.8195 1.0072 1.2378-.9177 1.9673-2.372 1.9673-3.9157a4.8972 4.8972 0 0 0-1.9861-3.925c-.386-.2824-.466-.8284-.1836-1.2143.2824-.386.8283-.466 1.2143-.1835 1.6895 1.2471 2.6826 3.2238 2.6873 5.3228 0 3.6474-2.965 6.6077-6.6077 6.6077z" ></path>
</symbol>
<symbol viewBox="0 0 128 128" id="sqlite"><defs><linearGradient id="sqlite-original-a" x1="-15.615" x2="-6.741" y1="-9.108" y2="-9.108" gradientTransform="rotate(90 -90.486 64.634) scale(9.2712)" gradientUnits="userSpaceOnUse"><stop stop-color="#95d7f4" offset="0"></stop><stop stop-color="#0f7fcc" offset=".92"></stop><stop stop-color="#0f7fcc" offset="1"></stop></linearGradient></defs><path d="M69.5 99.176c-.059-.73-.094-1.2-.094-1.2S67.2 83.087 64.57 78.642c-.414-.707.043-3.594 1.207-7.88.68 1.169 3.54 6.192 4.118 7.81.648 1.824.78 2.347.78 2.347s-1.57-8.082-4.144-12.797a162.286 162.286 0 012.004-6.265c.973 1.71 3.313 5.859 3.828 7.3.102.293.192.543.27.774.023-.137.05-.274.074-.414-.59-2.504-1.75-6.86-3.336-10.082 3.52-18.328 15.531-42.824 27.84-53.754H16.9c-5.387 0-9.789 4.406-9.789 9.789v88.57c0 5.383 4.406 9.789 9.79 9.789h52.897a118.657 118.657 0 01-.297-14.652" fill="#0b7fcc"></path><path d="M65.777 70.762c.68 1.168 3.54 6.188 4.117 7.809.649 1.824.781 2.347.781 2.347s-1.57-8.082-4.144-12.797a164.535 164.535 0 012.004-6.27c.887 1.567 2.922 5.169 3.652 6.872l.082-.961c-.648-2.496-1.633-5.766-2.898-8.328 3.242-16.871 13.68-38.97 24.926-50.898H16.899a6.94 6.94 0 00-6.934 6.933v82.11c17.527-6.731 38.664-12.88 56.855-12.614-.672-2.605-1.441-4.96-2.25-6.324-.414-.707.043-3.597 1.207-7.879" fill="url(#sqlite-original-a)"></path><path d="M115.95 2.781c-5.5-4.906-12.164-2.933-18.734 2.899a44.347 44.347 0 00-2.914 2.859c-11.25 11.926-21.684 34.023-24.926 50.895 1.262 2.563 2.25 5.832 2.894 8.328.168.64.32 1.242.442 1.754.285 1.207.437 1.996.437 1.996s-.101-.383-.515-1.582c-.078-.23-.168-.484-.27-.773-.043-.125-.105-.274-.172-.434-.734-1.703-2.765-5.305-3.656-6.867-.762 2.25-1.437 4.36-2.004 6.265 2.578 4.715 4.149 12.797 4.149 12.797s-.137-.523-.782-2.347c-.578-1.621-3.441-6.64-4.117-7.809-1.164 4.281-1.625 7.172-1.207 7.88.809 1.362 1.574 3.722 2.25 6.323 1.524 5.867 2.586 13.012 2.586 13.012s.031.469.094 1.2a118.653 118.653 0 00.297 14.651c.504 6.11 1.453 11.363 2.664 14.172l.828-.449c-1.781-5.535-2.504-12.793-2.188-21.156.48-12.793 3.422-28.215 8.856-44.289 9.191-24.27 21.938-43.738 33.602-53.035-10.633 9.602-25.023 40.684-29.332 52.195-4.82 12.891-8.238 24.984-10.301 36.574 3.55-10.863 15.047-15.53 15.047-15.53s5.637-6.958 12.227-16.888c-3.95.903-10.43 2.442-12.598 3.352-3.2 1.344-4.067 1.8-4.067 1.8s10.371-6.312 19.27-9.171c12.234-19.27 25.562-46.648 12.141-58.621" fill="#003956"></path></symbol>
<symbol viewBox="0 0 24 24" fill="none" stroke="currentColor" stroke-width="2" stroke-linecap="round" stroke-linejoin="round" class="lucide lucide-square-arrow-out-up-right" id="square-arrow-out-up-right"><path d="M21 13v6a2 2 0 0 1-2 2H5a2 2 0 0 1-2-2V5a2 2 0 0 1 2-2h6"></path><path d="m21 3-9 9"></path><path d="M15 3h6v6"></path></symbol>
<symbol viewBox="0 0 128 128" id="tailwindcss"><path d="M64.004 25.602c-17.067 0-27.73 8.53-32 25.597 6.398-8.531 13.867-11.73 22.398-9.597 4.871 1.214 8.352 4.746 12.207 8.66C72.883 56.629 80.145 64 96.004 64c17.066 0 27.73-8.531 32-25.602-6.399 8.536-13.867 11.735-22.399 9.602-4.87-1.215-8.347-4.746-12.207-8.66-6.27-6.367-13.53-13.738-29.394-13.738zM32.004 64c-17.066 0-27.73 8.531-32 25.602C6.402 81.066 13.87 77.867 22.402 80c4.871 1.215 8.352 4.746 12.207 8.66 6.274 6.367 13.536 13.738 29.395 13.738 17.066 0 27.73-8.53 32-25.597-6.399 8.531-13.867 11.73-22.399 9.597-4.87-1.214-8.347-4.746-12.207-8.66C55.128 71.371 47.868 64 32.004 64zm0 0" fill="#38bdf8"></path></symbol>
<symbol role="img" fill="currentColor" viewBox="0 0 24 24" id="twitter">
  <title>X</title>
  <path 

    d="M18.901 1.153h3.68l-8.04 9.19L24 22.846h-7.406l-5.8-7.584-6.638 7.584H.474l8.6-9.83L0 1.154h7.594l5.243 6.932ZM17.61 20.644h2.039L6.486 3.24H4.298Z" ></path>
</symbol>
<symbol viewBox="0 0 128 128" id="typescript"><path fill="#fff" d="M22.67 47h99.67v73.67H22.67z"></path><path data-name="original" fill="#007acc" d="M1.5 63.91v62.5h125v-125H1.5zm100.73-5a15.56 15.56 0 017.82 4.5 20.58 20.58 0 013 4c0 .16-5.4 3.81-8.69 5.85-.12.08-.6-.44-1.13-1.23a7.09 7.09 0 00-5.87-3.53c-3.79-.26-6.23 1.73-6.21 5a4.58 4.58 0 00.54 2.34c.83 1.73 2.38 2.76 7.24 4.86 8.95 3.85 12.78 6.39 15.16 10 2.66 4 3.25 10.46 1.45 15.24-2 5.2-6.9 8.73-13.83 9.9a38.32 38.32 0 01-9.52-.1 23 23 0 01-12.72-6.63c-1.15-1.27-3.39-4.58-3.25-4.82a9.34 9.34 0 011.15-.73L82 101l3.59-2.08.75 1.11a16.78 16.78 0 004.74 4.54c4 2.1 9.46 1.81 12.16-.62a5.43 5.43 0 00.69-6.92c-1-1.39-3-2.56-8.59-5-6.45-2.78-9.23-4.5-11.77-7.24a16.48 16.48 0 01-3.43-6.25 25 25 0 01-.22-8c1.33-6.23 6-10.58 12.82-11.87a31.66 31.66 0 019.49.26zm-29.34 5.24v5.12H56.66v46.23H45.15V69.26H28.88v-5a49.19 49.19 0 01.12-5.17C29.08 59 39 59 51 59h21.83z"></path></symbol>
<symbol viewBox="0 0 128 128" id="vitejs"><defs><linearGradient id="a" x1="6" x2="235" y1="33" y2="344" gradientTransform="translate(0 .937) scale(.3122)" gradientUnits="userSpaceOnUse"><stop offset="0" stop-color="#41d1ff"></stop><stop offset="1" stop-color="#bd34fe"></stop></linearGradient><linearGradient id="b" x1="194.651" x2="236.076" y1="8.818" y2="292.989" gradientTransform="translate(0 .937) scale(.3122)" gradientUnits="userSpaceOnUse"><stop offset="0" stop-color="#ffea83"></stop><stop offset=".083" stop-color="#ffdd35"></stop><stop offset="1" stop-color="#ffa800"></stop></linearGradient></defs><path fill="url(#a)" d="M124.766 19.52 67.324 122.238c-1.187 2.121-4.234 2.133-5.437.024L3.305 19.532c-1.313-2.302.652-5.087 3.261-4.622L64.07 25.187a3.09 3.09 0 0 0 1.11 0l56.3-10.261c2.598-.473 4.575 2.289 3.286 4.594Zm0 0"></path><path fill="url(#b)" d="M91.46 1.43 48.954 9.758a1.56 1.56 0 0 0-1.258 1.437l-2.617 44.168a1.563 1.563 0 0 0 1.91 1.614l11.836-2.735a1.562 1.562 0 0 1 1.88 1.836l-3.517 17.219a1.562 1.562 0 0 0 1.985 1.805l7.308-2.223c1.133-.344 2.223.652 1.985 1.812l-5.59 27.047c-.348 1.692 1.902 2.614 2.84 1.164l.625-.968 34.64-69.13c.582-1.16-.421-2.48-1.69-2.234l-12.185 2.352a1.558 1.558 0 0 1-1.793-1.965l7.95-27.562A1.56 1.56 0 0 0 91.46 1.43Zm0 0"></path></symbol>
<symbol viewBox="0 0 128 128" id="vscode"><mask id="a" width="128" height="128" x="0" y="0" maskUnits="userSpaceOnUse" style="mask-type:alpha"><path fill="#fff" fill-rule="evenodd" d="M90.767 127.126a7.968 7.968 0 0 0 6.35-.244l26.353-12.681a8 8 0 0 0 4.53-7.209V21.009a8 8 0 0 0-4.53-7.21L97.117 1.12a7.97 7.97 0 0 0-9.093 1.548l-50.45 46.026L15.6 32.013a5.328 5.328 0 0 0-6.807.302l-7.048 6.411a5.335 5.335 0 0 0-.006 7.888L20.796 64 1.74 81.387a5.336 5.336 0 0 0 .006 7.887l7.048 6.411a5.327 5.327 0 0 0 6.807.303l21.974-16.68 50.45 46.025a7.96 7.96 0 0 0 2.743 1.793Zm5.252-92.183L57.74 64l38.28 29.058V34.943Z" clip-rule="evenodd"></path></mask><g mask="url(#a)"><path fill="#0065A9" d="M123.471 13.82 97.097 1.12A7.973 7.973 0 0 0 88 2.668L1.662 81.387a5.333 5.333 0 0 0 .006 7.887l7.052 6.411a5.333 5.333 0 0 0 6.811.303l103.971-78.875c3.488-2.646 8.498-.158 8.498 4.22v-.306a8.001 8.001 0 0 0-4.529-7.208Z"></path><g filter="url(#b)"><path fill="#007ACC" d="m123.471 114.181-26.374 12.698A7.973 7.973 0 0 1 88 125.333L1.662 46.613a5.333 5.333 0 0 1 .006-7.887l7.052-6.411a5.333 5.333 0 0 1 6.811-.303l103.971 78.874c3.488 2.647 8.498.159 8.498-4.219v.306a8.001 8.001 0 0 1-4.529 7.208Z"></path></g><g filter="url(#c)"><path fill="#1F9CF0" d="M97.098 126.882A7.977 7.977 0 0 1 88 125.333c2.952 2.952 8 .861 8-3.314V5.98c0-4.175-5.048-6.266-8-3.313a7.977 7.977 0 0 1 9.098-1.549L123.467 13.8A8 8 0 0 1 128 21.01v85.982a8 8 0 0 1-4.533 7.21l-26.369 12.681Z"></path></g><path fill="url(#d)" fill-rule="evenodd" d="M90.69 127.126a7.968 7.968 0 0 0 6.349-.244l26.353-12.681a8 8 0 0 0 4.53-7.21V21.009a8 8 0 0 0-4.53-7.21L97.039 1.12a7.97 7.97 0 0 0-9.093 1.548l-50.45 46.026-21.974-16.68a5.328 5.328 0 0 0-6.807.302l-7.048 6.411a5.336 5.336 0 0 0-.006 7.888L20.718 64 1.662 81.386a5.335 5.335 0 0 0 .006 7.888l7.048 6.411a5.328 5.328 0 0 0 6.807.303l21.975-16.681 50.45 46.026a7.959 7.959 0 0 0 2.742 1.793Zm5.252-92.184L57.662 64l38.28 29.057V34.943Z" clip-rule="evenodd" opacity="0.25" style="mix-blend-mode:overlay"></path></g><defs><filter id="b" width="144.744" height="113.408" x="-8.41115" y="22.5944" color-interpolation-filters="sRGB" filterUnits="userSpaceOnUse"><feFlood flood-opacity="0" result="BackgroundImageFix"></feFlood><feColorMatrix in="SourceAlpha" result="hardAlpha" values="0 0 0 0 0 0 0 0 0 0 0 0 0 0 0 0 0 0 127 0"></feColorMatrix><feOffset></feOffset><feGaussianBlur stdDeviation="4.16667"></feGaussianBlur><feColorMatrix values="0 0 0 0 0 0 0 0 0 0 0 0 0 0 0 0 0 0 0.25 0"></feColorMatrix><feBlend in2="BackgroundImageFix" mode="overlay" result="effect1_dropShadow_1_36"></feBlend><feBlend in="SourceGraphic" in2="effect1_dropShadow_1_36" result="shape"></feBlend></filter><filter id="c" width="56.6667" height="144.007" x="79.6667" y="-8.0035" color-interpolation-filters="sRGB" filterUnits="userSpaceOnUse"><feFlood flood-opacity="0" result="BackgroundImageFix"></feFlood><feColorMatrix in="SourceAlpha" result="hardAlpha" values="0 0 0 0 0 0 0 0 0 0 0 0 0 0 0 0 0 0 127 0"></feColorMatrix><feOffset></feOffset><feGaussianBlur stdDeviation="4.16667"></feGaussianBlur><feColorMatrix values="0 0 0 0 0 0 0 0 0 0 0 0 0 0 0 0 0 0 0.25 0"></feColorMatrix><feBlend in2="BackgroundImageFix" mode="overlay" result="effect1_dropShadow_1_36"></feBlend><feBlend in="SourceGraphic" in2="effect1_dropShadow_1_36" result="shape"></feBlend></filter><linearGradient id="d" x1="63.9222" x2="63.9222" y1="0.329902" y2="127.67" gradientUnits="userSpaceOnUse"><stop stop-color="#fff"></stop><stop offset="1" stop-color="#fff" stop-opacity="0"></stop></linearGradient></defs></symbol>
<symbol role="img" fill="currentColor" viewBox="0 0 24 24" id="whatsapp">
  <title>WhatsApp</title>
  <path 
    d="M17.472 14.382c-.297-.149-1.758-.867-2.03-.967-.273-.099-.471-.148-.67.15-.197.297-.767.966-.94 1.164-.173.199-.347.223-.644.075-.297-.15-1.255-.463-2.39-1.475-.883-.788-1.48-1.761-1.653-2.059-.173-.297-.018-.458.13-.606.134-.133.298-.347.446-.52.149-.174.198-.298.298-.497.099-.198.05-.371-.025-.52-.075-.149-.669-1.612-.916-2.207-.242-.579-.487-.5-.669-.51-.173-.008-.371-.01-.57-.01-.198 0-.52.074-.792.372-.272.297-1.04 1.016-1.04 2.479 0 1.462 1.065 2.875 1.213 3.074.149.198 2.096 3.2 5.077 4.487.709.306 1.262.489 1.694.625.712.227 1.36.195 1.871.118.571-.085 1.758-.719 2.006-1.413.248-.694.248-1.289.173-1.413-.074-.124-.272-.198-.57-.347m-5.421 7.403h-.004a9.87 9.87 0 01-5.031-1.378l-.361-.214-3.741.982.998-3.648-.235-.374a9.86 9.86 0 01-1.51-5.26c.001-5.45 4.436-9.884 9.888-9.884 2.64 0 5.122 1.03 6.988 2.898a9.825 9.825 0 012.893 6.994c-.003 5.45-4.437 9.884-9.885 9.884m8.413-18.297A11.815 11.815 0 0012.05 0C5.495 0 .16 5.335.157 11.892c0 2.096.547 4.142 1.588 5.945L.057 24l6.305-1.654a11.882 11.882 0 005.683 1.448h.005c6.554 0 11.89-5.335 11.893-11.893a11.821 11.821 0 00-3.48-8.413Z" ></path>
</symbol>
</defs>
</svg>
